<?xml version="1.0" encoding="UTF-8" standalone="no"?><svg xmlns="http://www.w3.org/2000/svg" xmlns:xlink="http://www.w3.org/1999/xlink" clip-rule="evenodd" stroke-miterlimit="4.00" viewBox="0 0 1920 1080"><desc>SVG generated by Keynote</desc><defs></defs><g transform="matrix(1.00, 0.00, -0.00, -1.00, 0.0, 1080.0)"><g><clipPath id="clip-58"><path d="M 0.0 1080.0 L 1920.0 1080.0 L 1920.0 0.0 L 0.0 0.0 Z M 0.0 1080.0 "></path></clipPath><g clip-path="url(#clip-58)"><image xlink:href="B0E4B2F49AA342F7FB226A4FA1212BF9.png" width="960.00" height="768.00" transform="matrix(2.00, 0.00, -0.00, -1.41, 0.0, 1080.0)"></image></g></g><text xml:space="preserve" font-family="OpenSans" font-size="58.0" fill="#FEFFFF" transform="matrix(1.00, 0.00, -0.00, -1.00, 908.0, 517.0)">T</text><text xml:space="preserve" font-family="OpenSans" font-size="58.0" fill="#FEFFFF" transform="matrix(1.00, 0.00, -0.00, -1.00, 934.6, 517.0)">e</text><text xml:space="preserve" font-family="OpenSans" font-size="58.0" fill="#FEFFFF" transform="matrix(1.00, 0.00, -0.00, -1.00, 964.6, 517.0)">x</text><text xml:space="preserve" font-family="OpenSans" font-size="58.0" fill="#FEFFFF" transform="matrix(1.00, 0.00, -0.00, -1.00, 993.5, 517.0)">t</text><image xlink:href="FFB0A1D70778ABBA732A48CD20F69EE9.png" width="146.00" height="39.00" transform="matrix(0.99, 0.00, -0.00, -1.00, 1725.0, 1080.0)"></image><g><clipPath id="clip-59"><path d="M 769.0 462.0 L 1153.0 462.0 L 1153.0 846.0 L 769.0 846.0 Z M 769.0 462.0 "></path></clipPath><g clip-path="url(#clip-59)"><path d="M 769.0 846.0 L 1153.0 846.0 L 1153.0 462.0 L 769.0 462.0 Z M 769.0 846.0 " fill="#FEFFFF" fill-opacity="0.00"></path></g></g><g><clipPath id="clip-60"><path d="M 769.0 846.0 L 1153.0 846.0 L 1153.0 462.0 L 769.0 462.0 Z M 769.0 846.0 "></path></clipPath><g clip-path="url(#clip-60)"><g><clipPath id="clip-61"><path d="M 769.0 462.0 L 1153.0 462.0 L 1153.0 846.0 L 769.0 846.0 Z M 769.0 462.0 "></path></clipPath><g clip-path="url(#clip-61)"><image xlink:href="DBAE43798B61CEFE61038978D81DD27F.png" width="1024.00" height="1024.00" transform="matrix(0.38, 0.00, -0.00, -0.38, 769.0, 846.0)"></image></g></g></g></g><text xml:space="preserve" font-family="OpenSans-Light" font-size="130.0" fill="#52575F" transform="matrix(1.00, 0.00, -0.00, -1.00, 616.0, 326.0)">4</text><text xml:space="preserve" font-family="OpenSans-Light" font-size="86.7" fill="#52575F" transform="matrix(1.00, 0.00, -0.00, -1.00, 687.0, 372.3)">e</text><text xml:space="preserve" font-family="OpenSans-Light" font-size="130.0" fill="#52575F" transform="matrix(1.00, 0.00, -0.00, -1.00, 732.4, 326.0)"> </text><text xml:space="preserve" font-family="OpenSans-Light" font-size="130.0" fill="#52575F" transform="matrix(1.00, 0.00, -0.00, -1.00, 762.8, 326.0)">l</text><text xml:space="preserve" font-family="OpenSans-Light" font-size="130.0" fill="#52575F" transform="matrix(1.00, 0.00, -0.00, -1.00, 789.0, 326.0)">o</text><text xml:space="preserve" font-family="OpenSans-Light" font-size="130.0" fill="#52575F" transform="matrix(1.00, 0.00, -0.00, -1.00, 861.9, 326.0)">c</text><text xml:space="preserve" font-family="OpenSans-Light" font-size="130.0" fill="#52575F" transform="matrix(1.00, 0.00, -0.00, -1.00, 920.3, 326.0)">a</text><text xml:space="preserve" font-family="OpenSans-Light" font-size="130.0" fill="#52575F" transform="matrix(1.00, 0.00, -0.00, -1.00, 985.9, 326.0)">s</text><text xml:space="preserve" font-family="OpenSans-Light" font-size="130.0" fill="#52575F" transform="matrix(1.00, 0.00, -0.00, -1.00, 1043.2, 326.0)">p</text><text xml:space="preserve" font-family="OpenSans-Light" font-size="130.0" fill="#52575F" transform="matrix(1.00, 0.00, -0.00, -1.00, 1117.3, 326.0)">r</text><text xml:space="preserve" font-family="OpenSans-Light" font-size="130.0" fill="#52575F" transform="matrix(1.00, 0.00, -0.00, -1.00, 1164.6, 326.0)">i</text><text xml:space="preserve" font-family="OpenSans-Light" font-size="130.0" fill="#52575F" transform="matrix(1.00, 0.00, -0.00, -1.00, 1190.7, 326.0)">n</text><text xml:space="preserve" font-family="OpenSans-Light" font-size="130.0" fill="#52575F" transform="matrix(1.00, 0.00, -0.00, -1.00, 1264.2, 326.0)">t</text><image xlink:href="00EB2847D76D886DD4037EF704FB7752.png" width="400.00" height="70.00" transform="matrix(1.60, 0.00, -0.00, -1.60, 641.0, 247.0)"></image></g></svg>