<?xml version="1.0" encoding="UTF-8" standalone="no"?><svg xmlns="http://www.w3.org/2000/svg" xmlns:xlink="http://www.w3.org/1999/xlink" clip-rule="evenodd" stroke-miterlimit="4.00" viewBox="0 0 1920 1080"><desc>SVG generated by Keynote</desc><defs></defs><g transform="matrix(1.00, 0.00, -0.00, -1.00, 0.0, 1080.0)"><g><clipPath id="clip-98"><path d="M 0.0 1080.0 L 1920.0 1080.0 L 1920.0 0.0 L 0.0 0.0 Z M 0.0 1080.0 "></path></clipPath><g clip-path="url(#clip-98)"><image xlink:href="../../B594FF92-2F2C-4358-90A2-B6CE46C4EB93/assets/4B304F3E6F92C188ECBDDEA40EF5BE7B.png" width="963.00" height="541.00" transform="matrix(1.99, 0.00, -0.00, -2.00, 0.0, 1080.0)"></image></g></g><image xlink:href="../../5DDE46E5-DB9F-4075-BD33-5328BEB277AD/assets/FFB0A1D70778ABBA732A48CD20F69EE9.png" width="146.00" height="39.00" transform="matrix(0.99, 0.00, -0.00, -1.00, 1725.0, 1080.0)"></image><text xml:space="preserve" font-family="OpenSans-Light" font-size="88.0" fill="#FFFFFF" transform="matrix(1.00, 0.00, -0.00, -1.00, 731.0, 505.0)">R</text><text xml:space="preserve" font-family="OpenSans-Light" font-size="88.0" fill="#FFFFFF" transform="matrix(1.00, 0.00, -0.00, -1.00, 783.3, 505.0)">E</text><text xml:space="preserve" font-family="OpenSans-Light" font-size="88.0" fill="#FFFFFF" transform="matrix(1.00, 0.00, -0.00, -1.00, 831.9, 505.0)">L</text><text xml:space="preserve" font-family="OpenSans-Light" font-size="88.0" fill="#FFFFFF" transform="matrix(1.00, 0.00, -0.00, -1.00, 877.1, 505.0)">E</text><text xml:space="preserve" font-family="OpenSans-Light" font-size="88.0" fill="#FFFFFF" transform="matrix(1.00, 0.00, -0.00, -1.00, 925.6, 505.0)">C</text><text xml:space="preserve" font-family="OpenSans-Light" font-size="88.0" fill="#FFFFFF" transform="matrix(1.00, 0.00, -0.00, -1.00, 980.3, 505.0)">T</text><text xml:space="preserve" font-family="OpenSans-Light" font-size="88.0" fill="#FFFFFF" transform="matrix(1.00, 0.00, -0.00, -1.00, 1026.4, 505.0)">U</text><text xml:space="preserve" font-family="OpenSans-Light" font-size="88.0" fill="#FFFFFF" transform="matrix(1.00, 0.00, -0.00, -1.00, 1089.7, 505.0)">R</text><text xml:space="preserve" font-family="OpenSans-Light" font-size="88.0" fill="#FFFFFF" transform="matrix(1.00, 0.00, -0.00, -1.00, 1142.1, 505.0)">E</text></g></svg>