<?xml version="1.0" encoding="UTF-8" standalone="no"?><svg xmlns="http://www.w3.org/2000/svg" xmlns:xlink="http://www.w3.org/1999/xlink" clip-rule="evenodd" stroke-miterlimit="4.00" viewBox="0 0 1920 1080"><desc>SVG generated by Keynote</desc><defs></defs><g transform="matrix(1.00, 0.00, -0.00, -1.00, 0.0, 1080.0)"><g><clipPath id="clip-88"><path d="M 0.0 1080.0 L 1920.0 1080.0 L 1920.0 0.0 L 0.0 0.0 Z M 0.0 1080.0 "></path></clipPath><g clip-path="url(#clip-88)"><image xlink:href="../../2677DC75-44AA-4362-8194-690EDA55041B/assets/8CB06E0CD672379C9A3B0841311F1144.png" width="961.00" height="541.00" transform="matrix(2.00, 0.00, -0.00, -2.00, 0.0, 1080.0)"></image></g></g><image xlink:href="../../5DDE46E5-DB9F-4075-BD33-5328BEB277AD/assets/FFB0A1D70778ABBA732A48CD20F69EE9.png" width="146.00" height="39.00" transform="matrix(0.99, 0.00, -0.00, -1.00, 1725.0, 1080.0)"></image><text xml:space="preserve" font-family="OpenSans-Light" font-size="88.0" fill="#FFFFFF" transform="matrix(1.00, 0.00, -0.00, -1.00, 57.0, 950.0)">M</text><text xml:space="preserve" font-family="OpenSans-Light" font-size="88.0" fill="#FFFFFF" transform="matrix(1.00, 0.00, -0.00, -1.00, 132.9, 950.0)">A</text><text xml:space="preserve" font-family="OpenSans-Light" font-size="88.0" fill="#FFFFFF" transform="matrix(1.00, 0.00, -0.00, -1.00, 185.7, 950.0)">I</text><text xml:space="preserve" font-family="OpenSans-Light" font-size="88.0" fill="#FFFFFF" transform="matrix(1.00, 0.00, -0.00, -1.00, 207.9, 950.0)">S</text><text xml:space="preserve" font-family="OpenSans-Light" font-size="88.0" fill="#FFFFFF" transform="matrix(1.00, 0.00, -0.00, -1.00, 255.8, 950.0)"> </text><text xml:space="preserve" font-family="OpenSans-Light" font-size="88.0" fill="#FFFFFF" transform="matrix(1.00, 0.00, -0.00, -1.00, 278.7, 950.0)">A</text><text xml:space="preserve" font-family="OpenSans-Light" font-size="88.0" fill="#FFFFFF" transform="matrix(1.00, 0.00, -0.00, -1.00, 331.5, 950.0)">U</text><text xml:space="preserve" font-family="OpenSans-Light" font-size="88.0" fill="#FFFFFF" transform="matrix(1.00, 0.00, -0.00, -1.00, 394.8, 950.0)">S</text><text xml:space="preserve" font-family="OpenSans-Light" font-size="88.0" fill="#FFFFFF" transform="matrix(1.00, 0.00, -0.00, -1.00, 442.8, 950.0)">S</text><text xml:space="preserve" font-family="OpenSans-Light" font-size="88.0" fill="#FFFFFF" transform="matrix(1.00, 0.00, -0.00, -1.00, 490.7, 950.0)">I</text><text xml:space="preserve" font-family="OpenSans-Light" font-size="88.0" fill="#FFFFFF" transform="matrix(1.00, 0.00, -0.00, -1.00, 512.9, 950.0)">…</text><text xml:space="preserve" font-family="OpenSans" font-size="42.6" fill="#FFFFFF" transform="matrix(1.00, 0.00, -0.00, -1.00, 57.0, 818.0)">•</text><text xml:space="preserve" font-family="OpenSans" font-size="52.0" fill="#FFFFFF" transform="matrix(1.00, 0.00, -0.00, -1.00, 81.0, 814.0)">L</text><text xml:space="preserve" font-family="OpenSans" font-size="52.0" fill="#FFFFFF" transform="matrix(1.00, 0.00, -0.00, -1.00, 108.0, 814.0)">e</text><text xml:space="preserve" font-family="OpenSans" font-size="52.0" fill="#FFFFFF" transform="matrix(1.00, 0.00, -0.00, -1.00, 137.2, 814.0)">t</text><text xml:space="preserve" font-family="OpenSans" font-size="52.0" fill="#FFFFFF" transform="matrix(1.00, 0.00, -0.00, -1.00, 155.5, 814.0)">t</text><text xml:space="preserve" font-family="OpenSans" font-size="52.0" fill="#FFFFFF" transform="matrix(1.00, 0.00, -0.00, -1.00, 173.9, 814.0)">r</text><text xml:space="preserve" font-family="OpenSans" font-size="52.0" fill="#FFFFFF" transform="matrix(1.00, 0.00, -0.00, -1.00, 194.1, 814.0)">e</text><text xml:space="preserve" font-family="OpenSans" font-size="52.0" fill="#FFFFFF" transform="matrix(1.00, 0.00, -0.00, -1.00, 223.2, 814.0)">s</text><text xml:space="preserve" font-family="OpenSans" font-size="52.0" fill="#FFFFFF" transform="matrix(1.00, 0.00, -0.00, -1.00, 248.1, 814.0)"> </text><text xml:space="preserve" font-family="OpenSans" font-size="52.0" fill="#FFFFFF" transform="matrix(1.00, 0.00, -0.00, -1.00, 261.6, 814.0)">d</text><text xml:space="preserve" font-family="OpenSans" font-size="52.0" fill="#FFFFFF" transform="matrix(1.00, 0.00, -0.00, -1.00, 293.4, 814.0)">’</text><text xml:space="preserve" font-family="OpenSans" font-size="52.0" fill="#FFFFFF" transform="matrix(1.00, 0.00, -0.00, -1.00, 302.2, 814.0)">i</text><text xml:space="preserve" font-family="OpenSans" font-size="52.0" fill="#FFFFFF" transform="matrix(1.00, 0.00, -0.00, -1.00, 315.4, 814.0)">n</text><text xml:space="preserve" font-family="OpenSans" font-size="52.0" fill="#FFFFFF" transform="matrix(1.00, 0.00, -0.00, -1.00, 347.3, 814.0)">f</text><text xml:space="preserve" font-family="OpenSans" font-size="52.0" fill="#FFFFFF" transform="matrix(1.00, 0.00, -0.00, -1.00, 364.9, 814.0)">o</text><text xml:space="preserve" font-family="OpenSans" font-size="52.0" fill="#FFFFFF" transform="matrix(1.00, 0.00, -0.00, -1.00, 396.3, 814.0)">r</text><text xml:space="preserve" font-family="OpenSans" font-size="52.0" fill="#FFFFFF" transform="matrix(1.00, 0.00, -0.00, -1.00, 417.6, 814.0)">m</text><text xml:space="preserve" font-family="OpenSans" font-size="52.0" fill="#FFFFFF" transform="matrix(1.00, 0.00, -0.00, -1.00, 465.9, 814.0)">a</text><text xml:space="preserve" font-family="OpenSans" font-size="52.0" fill="#FFFFFF" transform="matrix(1.00, 0.00, -0.00, -1.00, 494.9, 814.0)">t</text><text xml:space="preserve" font-family="OpenSans" font-size="52.0" fill="#FFFFFF" transform="matrix(1.00, 0.00, -0.00, -1.00, 513.2, 814.0)">i</text><text xml:space="preserve" font-family="OpenSans" font-size="52.0" fill="#FFFFFF" transform="matrix(1.00, 0.00, -0.00, -1.00, 526.4, 814.0)">o</text><text xml:space="preserve" font-family="OpenSans" font-size="52.0" fill="#FFFFFF" transform="matrix(1.00, 0.00, -0.00, -1.00, 557.8, 814.0)">n</text><text xml:space="preserve" font-family="OpenSans" font-size="52.0" fill="#FFFFFF" transform="matrix(1.00, 0.00, -0.00, -1.00, 589.7, 814.0)"> </text><text xml:space="preserve" font-family="OpenSans" font-size="42.6" fill="#FFFFFF" transform="matrix(1.00, 0.00, -0.00, -1.00, 57.0, 693.0)">•</text><text xml:space="preserve" font-family="OpenSans" font-size="52.0" fill="#FFFFFF" transform="matrix(1.00, 0.00, -0.00, -1.00, 81.0, 689.0)">B</text><text xml:space="preserve" font-family="OpenSans" font-size="52.0" fill="#FFFFFF" transform="matrix(1.00, 0.00, -0.00, -1.00, 114.7, 689.0)">i</text><text xml:space="preserve" font-family="OpenSans" font-size="52.0" fill="#FFFFFF" transform="matrix(1.00, 0.00, -0.00, -1.00, 127.8, 689.0)">l</text><text xml:space="preserve" font-family="OpenSans" font-size="52.0" fill="#FFFFFF" transform="matrix(1.00, 0.00, -0.00, -1.00, 141.0, 689.0)">l</text><text xml:space="preserve" font-family="OpenSans" font-size="52.0" fill="#FFFFFF" transform="matrix(1.00, 0.00, -0.00, -1.00, 154.1, 689.0)">e</text><text xml:space="preserve" font-family="OpenSans" font-size="52.0" fill="#FFFFFF" transform="matrix(1.00, 0.00, -0.00, -1.00, 183.3, 689.0)">t</text><text xml:space="preserve" font-family="OpenSans" font-size="52.0" fill="#FFFFFF" transform="matrix(1.00, 0.00, -0.00, -1.00, 201.7, 689.0)">s</text><text xml:space="preserve" font-family="OpenSans" font-size="52.0" fill="#FFFFFF" transform="matrix(1.00, 0.00, -0.00, -1.00, 226.5, 689.0)"> </text><text xml:space="preserve" font-family="OpenSans" font-size="52.0" fill="#FFFFFF" transform="matrix(1.00, 0.00, -0.00, -1.00, 240.0, 689.0)">d</text><text xml:space="preserve" font-family="OpenSans" font-size="52.0" fill="#FFFFFF" transform="matrix(1.00, 0.00, -0.00, -1.00, 271.8, 689.0)">e</text><text xml:space="preserve" font-family="OpenSans" font-size="52.0" fill="#FFFFFF" transform="matrix(1.00, 0.00, -0.00, -1.00, 301.0, 689.0)"> </text><text xml:space="preserve" font-family="OpenSans" font-size="52.0" fill="#FFFFFF" transform="matrix(1.00, 0.00, -0.00, -1.00, 314.5, 689.0)">b</text><text xml:space="preserve" font-family="OpenSans" font-size="52.0" fill="#FFFFFF" transform="matrix(1.00, 0.00, -0.00, -1.00, 346.4, 689.0)">l</text><text xml:space="preserve" font-family="OpenSans" font-size="52.0" fill="#FFFFFF" transform="matrix(1.00, 0.00, -0.00, -1.00, 359.5, 689.0)">o</text><text xml:space="preserve" font-family="OpenSans" font-size="52.0" fill="#FFFFFF" transform="matrix(1.00, 0.00, -0.00, -1.00, 390.9, 689.0)">g</text><text xml:space="preserve" font-family="OpenSans" font-size="52.0" fill="#FFFFFF" transform="matrix(1.00, 0.00, -0.00, -1.00, 419.4, 689.0)"> </text><text xml:space="preserve" font-family="OpenSans" font-size="42.6" fill="#FFFFFF" transform="matrix(1.00, 0.00, -0.00, -1.00, 57.0, 568.0)">•</text><text xml:space="preserve" font-family="OpenSans" font-size="52.0" fill="#FFFFFF" transform="matrix(1.00, 0.00, -0.00, -1.00, 81.0, 564.0)">P</text><text xml:space="preserve" font-family="OpenSans" font-size="52.0" fill="#FFFFFF" transform="matrix(1.00, 0.00, -0.00, -1.00, 112.3, 564.0)">o</text><text xml:space="preserve" font-family="OpenSans" font-size="52.0" fill="#FFFFFF" transform="matrix(1.00, 0.00, -0.00, -1.00, 143.7, 564.0)">s</text><text xml:space="preserve" font-family="OpenSans" font-size="52.0" fill="#FFFFFF" transform="matrix(1.00, 0.00, -0.00, -1.00, 168.5, 564.0)">t</text><text xml:space="preserve" font-family="OpenSans" font-size="52.0" fill="#FFFFFF" transform="matrix(1.00, 0.00, -0.00, -1.00, 186.9, 564.0)">e</text><text xml:space="preserve" font-family="OpenSans" font-size="52.0" fill="#FFFFFF" transform="matrix(1.00, 0.00, -0.00, -1.00, 216.1, 564.0)">r</text><text xml:space="preserve" font-family="OpenSans" font-size="52.0" fill="#FFFFFF" transform="matrix(1.00, 0.00, -0.00, -1.00, 237.3, 564.0)">s</text><text xml:space="preserve" font-family="OpenSans" font-size="52.0" fill="#FFFFFF" transform="matrix(1.00, 0.00, -0.00, -1.00, 262.1, 564.0)"> </text><text xml:space="preserve" font-family="OpenSans" font-size="42.6" fill="#FFFFFF" transform="matrix(1.00, 0.00, -0.00, -1.00, 57.0, 443.0)">•</text><text xml:space="preserve" font-family="OpenSans" font-size="52.0" fill="#FFFFFF" transform="matrix(1.00, 0.00, -0.00, -1.00, 81.0, 439.0)">I</text><text xml:space="preserve" font-family="OpenSans" font-size="52.0" fill="#FFFFFF" transform="matrix(1.00, 0.00, -0.00, -1.00, 95.5, 439.0)">n</text><text xml:space="preserve" font-family="OpenSans" font-size="52.0" fill="#FFFFFF" transform="matrix(1.00, 0.00, -0.00, -1.00, 127.4, 439.0)">f</text><text xml:space="preserve" font-family="OpenSans" font-size="52.0" fill="#FFFFFF" transform="matrix(1.00, 0.00, -0.00, -1.00, 145.0, 439.0)">o</text><text xml:space="preserve" font-family="OpenSans" font-size="52.0" fill="#FFFFFF" transform="matrix(1.00, 0.00, -0.00, -1.00, 176.4, 439.0)">g</text><text xml:space="preserve" font-family="OpenSans" font-size="52.0" fill="#FFFFFF" transform="matrix(1.00, 0.00, -0.00, -1.00, 204.9, 439.0)">r</text><text xml:space="preserve" font-family="OpenSans" font-size="52.0" fill="#FFFFFF" transform="matrix(1.00, 0.00, -0.00, -1.00, 225.1, 439.0)">a</text><text xml:space="preserve" font-family="OpenSans" font-size="52.0" fill="#FFFFFF" transform="matrix(1.00, 0.00, -0.00, -1.00, 254.0, 439.0)">p</text><text xml:space="preserve" font-family="OpenSans" font-size="52.0" fill="#FFFFFF" transform="matrix(1.00, 0.00, -0.00, -1.00, 285.9, 439.0)">h</text><text xml:space="preserve" font-family="OpenSans" font-size="52.0" fill="#FFFFFF" transform="matrix(1.00, 0.00, -0.00, -1.00, 317.8, 439.0)">i</text><text xml:space="preserve" font-family="OpenSans" font-size="52.0" fill="#FFFFFF" transform="matrix(1.00, 0.00, -0.00, -1.00, 330.9, 439.0)">e</text><text xml:space="preserve" font-family="OpenSans" font-size="52.0" fill="#FFFFFF" transform="matrix(1.00, 0.00, -0.00, -1.00, 360.1, 439.0)">s</text><text xml:space="preserve" font-family="OpenSans" font-size="52.0" fill="#FFFFFF" transform="matrix(1.00, 0.00, -0.00, -1.00, 384.9, 439.0)"> </text><text xml:space="preserve" font-family="OpenSans" font-size="42.6" fill="#FFFFFF" transform="matrix(1.00, 0.00, -0.00, -1.00, 57.0, 318.0)">•</text><text xml:space="preserve" font-family="OpenSans" font-size="52.0" fill="#FFFFFF" transform="matrix(1.00, 0.00, -0.00, -1.00, 81.0, 314.0)">V</text><text xml:space="preserve" font-family="OpenSans" font-size="52.0" fill="#FFFFFF" transform="matrix(1.00, 0.00, -0.00, -1.00, 112.0, 314.0)">i</text><text xml:space="preserve" font-family="OpenSans" font-size="52.0" fill="#FFFFFF" transform="matrix(1.00, 0.00, -0.00, -1.00, 125.1, 314.0)">d</text><text xml:space="preserve" font-family="OpenSans" font-size="52.0" fill="#FFFFFF" transform="matrix(1.00, 0.00, -0.00, -1.00, 157.0, 314.0)">é</text><text xml:space="preserve" font-family="OpenSans" font-size="52.0" fill="#FFFFFF" transform="matrix(1.00, 0.00, -0.00, -1.00, 186.1, 314.0)">o</text><text xml:space="preserve" font-family="OpenSans" font-size="52.0" fill="#FFFFFF" transform="matrix(1.00, 0.00, -0.00, -1.00, 217.5, 314.0)">s</text><text xml:space="preserve" font-family="OpenSans" font-size="52.0" fill="#FFFFFF" transform="matrix(1.00, 0.00, -0.00, -1.00, 242.4, 314.0)"> </text><text xml:space="preserve" font-family="OpenSans" font-size="42.6" fill="#FFFFFF" transform="matrix(1.00, 0.00, -0.00, -1.00, 57.0, 193.0)">•</text><text xml:space="preserve" font-family="OpenSans" font-size="52.0" fill="#FFFFFF" transform="matrix(1.00, 0.00, -0.00, -1.00, 81.0, 189.0)">C</text><text xml:space="preserve" font-family="OpenSans" font-size="52.0" fill="#FFFFFF" transform="matrix(1.00, 0.00, -0.00, -1.00, 113.8, 189.0)">a</text><text xml:space="preserve" font-family="OpenSans" font-size="52.0" fill="#FFFFFF" transform="matrix(1.00, 0.00, -0.00, -1.00, 142.7, 189.0)">p</text><text xml:space="preserve" font-family="OpenSans" font-size="52.0" fill="#FFFFFF" transform="matrix(1.00, 0.00, -0.00, -1.00, 174.6, 189.0)">t</text><text xml:space="preserve" font-family="OpenSans" font-size="52.0" fill="#FFFFFF" transform="matrix(1.00, 0.00, -0.00, -1.00, 192.9, 189.0)">u</text><text xml:space="preserve" font-family="OpenSans" font-size="52.0" fill="#FFFFFF" transform="matrix(1.00, 0.00, -0.00, -1.00, 224.8, 189.0)">r</text><text xml:space="preserve" font-family="OpenSans" font-size="52.0" fill="#FFFFFF" transform="matrix(1.00, 0.00, -0.00, -1.00, 245.0, 189.0)">e</text><text xml:space="preserve" font-family="OpenSans" font-size="52.0" fill="#FFFFFF" transform="matrix(1.00, 0.00, -0.00, -1.00, 274.2, 189.0)">s</text><text xml:space="preserve" font-family="OpenSans" font-size="52.0" fill="#FFFFFF" transform="matrix(1.00, 0.00, -0.00, -1.00, 299.0, 189.0)"> </text><text xml:space="preserve" font-family="OpenSans" font-size="52.0" fill="#FFFFFF" transform="matrix(1.00, 0.00, -0.00, -1.00, 312.5, 189.0)">d</text><text xml:space="preserve" font-family="OpenSans" font-size="52.0" fill="#FFFFFF" transform="matrix(1.00, 0.00, -0.00, -1.00, 344.4, 189.0)">’</text><text xml:space="preserve" font-family="OpenSans" font-size="52.0" fill="#FFFFFF" transform="matrix(1.00, 0.00, -0.00, -1.00, 350.1, 189.0)">é</text><text xml:space="preserve" font-family="OpenSans" font-size="52.0" fill="#FFFFFF" transform="matrix(1.00, 0.00, -0.00, -1.00, 379.3, 189.0)">c</text><text xml:space="preserve" font-family="OpenSans" font-size="52.0" fill="#FFFFFF" transform="matrix(1.00, 0.00, -0.00, -1.00, 404.0, 189.0)">r</text><text xml:space="preserve" font-family="OpenSans" font-size="52.0" fill="#FFFFFF" transform="matrix(1.00, 0.00, -0.00, -1.00, 424.2, 189.0)">a</text><text xml:space="preserve" font-family="OpenSans" font-size="52.0" fill="#FFFFFF" transform="matrix(1.00, 0.00, -0.00, -1.00, 453.2, 189.0)">n</text><text xml:space="preserve" font-family="OpenSans" font-size="52.0" fill="#FFFFFF" transform="matrix(1.00, 0.00, -0.00, -1.00, 485.1, 189.0)"> </text><text xml:space="preserve" font-family="OpenSans" font-size="42.6" fill="#FFFFFF" transform="matrix(1.00, 0.00, -0.00, -1.00, 57.0, 68.0)">•</text><text xml:space="preserve" font-family="OpenSans" font-size="52.0" fill="#FFFFFF" transform="matrix(1.00, 0.00, -0.00, -1.00, 81.0, 64.0)">S</text><text xml:space="preserve" font-family="OpenSans" font-size="52.0" fill="#FFFFFF" transform="matrix(1.00, 0.00, -0.00, -1.00, 109.5, 64.0)">l</text><text xml:space="preserve" font-family="OpenSans" font-size="52.0" fill="#FFFFFF" transform="matrix(1.00, 0.00, -0.00, -1.00, 122.7, 64.0)">o</text><text xml:space="preserve" font-family="OpenSans" font-size="52.0" fill="#FFFFFF" transform="matrix(1.00, 0.00, -0.00, -1.00, 154.1, 64.0)">g</text><text xml:space="preserve" font-family="OpenSans" font-size="52.0" fill="#FFFFFF" transform="matrix(1.00, 0.00, -0.00, -1.00, 182.6, 64.0)">a</text><text xml:space="preserve" font-family="OpenSans" font-size="52.0" fill="#FFFFFF" transform="matrix(1.00, 0.00, -0.00, -1.00, 211.5, 64.0)">n</text><text xml:space="preserve" font-family="OpenSans" font-size="52.0" fill="#FFFFFF" transform="matrix(1.00, 0.00, -0.00, -1.00, 243.4, 64.0)">s</text><text xml:space="preserve" font-family="OpenSans" font-size="52.0" fill="#FFFFFF" transform="matrix(1.00, 0.00, -0.00, -1.00, 268.2, 64.0)"> </text><text xml:space="preserve" font-family="OpenSans" font-size="42.6" fill="#FFFFFF" transform="matrix(1.00, 0.00, -0.00, -1.00, 1005.7, 818.0)">•</text><text xml:space="preserve" font-family="OpenSans" font-size="52.0" fill="#FFFFFF" transform="matrix(1.00, 0.00, -0.00, -1.00, 1030.0, 814.0)">M</text><text xml:space="preserve" font-family="OpenSans" font-size="52.0" fill="#FFFFFF" transform="matrix(1.00, 0.00, -0.00, -1.00, 1076.9, 814.0)">e</text><text xml:space="preserve" font-family="OpenSans" font-size="52.0" fill="#FFFFFF" transform="matrix(1.00, 0.00, -0.00, -1.00, 1106.1, 814.0)">s</text><text xml:space="preserve" font-family="OpenSans" font-size="52.0" fill="#FFFFFF" transform="matrix(1.00, 0.00, -0.00, -1.00, 1130.9, 814.0)">s</text><text xml:space="preserve" font-family="OpenSans" font-size="52.0" fill="#FFFFFF" transform="matrix(1.00, 0.00, -0.00, -1.00, 1155.7, 814.0)">a</text><text xml:space="preserve" font-family="OpenSans" font-size="52.0" fill="#FFFFFF" transform="matrix(1.00, 0.00, -0.00, -1.00, 1184.7, 814.0)">g</text><text xml:space="preserve" font-family="OpenSans" font-size="52.0" fill="#FFFFFF" transform="matrix(1.00, 0.00, -0.00, -1.00, 1213.1, 814.0)">e</text><text xml:space="preserve" font-family="OpenSans" font-size="52.0" fill="#FFFFFF" transform="matrix(1.00, 0.00, -0.00, -1.00, 1242.3, 814.0)">s</text><text xml:space="preserve" font-family="OpenSans" font-size="52.0" fill="#FFFFFF" transform="matrix(1.00, 0.00, -0.00, -1.00, 1267.1, 814.0)"> </text><text xml:space="preserve" font-family="OpenSans" font-size="52.0" fill="#FFFFFF" transform="matrix(1.00, 0.00, -0.00, -1.00, 1280.6, 814.0)">p</text><text xml:space="preserve" font-family="OpenSans" font-size="52.0" fill="#FFFFFF" transform="matrix(1.00, 0.00, -0.00, -1.00, 1312.5, 814.0)">o</text><text xml:space="preserve" font-family="OpenSans" font-size="52.0" fill="#FFFFFF" transform="matrix(1.00, 0.00, -0.00, -1.00, 1343.9, 814.0)">u</text><text xml:space="preserve" font-family="OpenSans" font-size="52.0" fill="#FFFFFF" transform="matrix(1.00, 0.00, -0.00, -1.00, 1375.8, 814.0)">r</text><text xml:space="preserve" font-family="OpenSans" font-size="52.0" fill="#FFFFFF" transform="matrix(1.00, 0.00, -0.00, -1.00, 1397.0, 814.0)"> </text><text xml:space="preserve" font-family="OpenSans" font-size="52.0" fill="#FFFFFF" transform="matrix(1.00, 0.00, -0.00, -1.00, 1410.5, 814.0)">l</text><text xml:space="preserve" font-family="OpenSans" font-size="52.0" fill="#FFFFFF" transform="matrix(1.00, 0.00, -0.00, -1.00, 1423.7, 814.0)">e</text><text xml:space="preserve" font-family="OpenSans" font-size="52.0" fill="#FFFFFF" transform="matrix(1.00, 0.00, -0.00, -1.00, 1452.9, 814.0)">s</text><text xml:space="preserve" font-family="OpenSans" font-size="52.0" fill="#FFFFFF" transform="matrix(1.00, 0.00, -0.00, -1.00, 1477.7, 814.0)"> </text><text xml:space="preserve" font-family="OpenSans" font-size="52.0" fill="#FFFFFF" transform="matrix(1.00, 0.00, -0.00, -1.00, 1491.2, 814.0)">r</text><text xml:space="preserve" font-family="OpenSans" font-size="52.0" fill="#FFFFFF" transform="matrix(1.00, 0.00, -0.00, -1.00, 1511.4, 814.0)">é</text><text xml:space="preserve" font-family="OpenSans" font-size="52.0" fill="#FFFFFF" transform="matrix(1.00, 0.00, -0.00, -1.00, 1540.5, 814.0)">s</text><text xml:space="preserve" font-family="OpenSans" font-size="52.0" fill="#FFFFFF" transform="matrix(1.00, 0.00, -0.00, -1.00, 1565.3, 814.0)">e</text><text xml:space="preserve" font-family="OpenSans" font-size="52.0" fill="#FFFFFF" transform="matrix(1.00, 0.00, -0.00, -1.00, 1594.5, 814.0)">a</text><text xml:space="preserve" font-family="OpenSans" font-size="52.0" fill="#FFFFFF" transform="matrix(1.00, 0.00, -0.00, -1.00, 1623.5, 814.0)">u</text><text xml:space="preserve" font-family="OpenSans" font-size="52.0" fill="#FFFFFF" transform="matrix(1.00, 0.00, -0.00, -1.00, 1655.4, 814.0)">x</text><text xml:space="preserve" font-family="OpenSans" font-size="52.0" fill="#FFFFFF" transform="matrix(1.00, 0.00, -0.00, -1.00, 1682.6, 814.0)"> </text><text xml:space="preserve" font-family="OpenSans" font-size="52.0" fill="#FFFFFF" transform="matrix(1.00, 0.00, -0.00, -1.00, 1030.0, 743.0)">s</text><text xml:space="preserve" font-family="OpenSans" font-size="52.0" fill="#FFFFFF" transform="matrix(1.00, 0.00, -0.00, -1.00, 1054.8, 743.0)">o</text><text xml:space="preserve" font-family="OpenSans" font-size="52.0" fill="#FFFFFF" transform="matrix(1.00, 0.00, -0.00, -1.00, 1086.2, 743.0)">c</text><text xml:space="preserve" font-family="OpenSans" font-size="52.0" fill="#FFFFFF" transform="matrix(1.00, 0.00, -0.00, -1.00, 1111.0, 743.0)">i</text><text xml:space="preserve" font-family="OpenSans" font-size="52.0" fill="#FFFFFF" transform="matrix(1.00, 0.00, -0.00, -1.00, 1124.1, 743.0)">a</text><text xml:space="preserve" font-family="OpenSans" font-size="52.0" fill="#FFFFFF" transform="matrix(1.00, 0.00, -0.00, -1.00, 1153.1, 743.0)">u</text><text xml:space="preserve" font-family="OpenSans" font-size="52.0" fill="#FFFFFF" transform="matrix(1.00, 0.00, -0.00, -1.00, 1185.0, 743.0)">x</text></g></svg>