<?xml version="1.0" encoding="UTF-8" standalone="no"?><svg xmlns="http://www.w3.org/2000/svg" xmlns:xlink="http://www.w3.org/1999/xlink" clip-rule="evenodd" stroke-miterlimit="4.00" viewBox="0 0 1920 1080"><desc>SVG generated by Keynote</desc><defs></defs><g transform="matrix(1.00, 0.00, -0.00, -1.00, 0.0, 1080.0)"><g><clipPath id="clip-64"><path d="M 0.0 1080.0 L 1920.0 1080.0 L 1920.0 0.0 L 0.0 0.0 Z M 0.0 1080.0 "></path></clipPath><g clip-path="url(#clip-64)"><image xlink:href="../../5DDE46E5-DB9F-4075-BD33-5328BEB277AD/assets/99AF0EC6EA4AD453B64B8E615783AC40.png" width="960.00" height="768.00" transform="matrix(2.00, 0.00, -0.00, -1.41, 0.0, 1080.0)"></image></g></g><image xlink:href="../../5DDE46E5-DB9F-4075-BD33-5328BEB277AD/assets/FFB0A1D70778ABBA732A48CD20F69EE9.png" width="146.00" height="39.00" transform="matrix(0.99, 0.00, -0.00, -1.00, 1725.0, 1080.0)"></image><text xml:space="preserve" font-family="OpenSans-Light" font-size="88.0" fill="#FFFFFF" transform="matrix(1.00, 0.00, -0.00, -1.00, 57.0, 950.0)">P</text><text xml:space="preserve" font-family="OpenSans-Light" font-size="88.0" fill="#FFFFFF" transform="matrix(1.00, 0.00, -0.00, -1.00, 108.5, 950.0)">O</text><text xml:space="preserve" font-family="OpenSans-Light" font-size="88.0" fill="#FFFFFF" transform="matrix(1.00, 0.00, -0.00, -1.00, 175.7, 950.0)">U</text><text xml:space="preserve" font-family="OpenSans-Light" font-size="88.0" fill="#FFFFFF" transform="matrix(1.00, 0.00, -0.00, -1.00, 239.1, 950.0)">R</text><text xml:space="preserve" font-family="OpenSans-Light" font-size="88.0" fill="#FFFFFF" transform="matrix(1.00, 0.00, -0.00, -1.00, 291.4, 950.0)">Q</text><text xml:space="preserve" font-family="OpenSans-Light" font-size="88.0" fill="#FFFFFF" transform="matrix(1.00, 0.00, -0.00, -1.00, 358.6, 950.0)">U</text><text xml:space="preserve" font-family="OpenSans-Light" font-size="88.0" fill="#FFFFFF" transform="matrix(1.00, 0.00, -0.00, -1.00, 421.9, 950.0)">O</text><text xml:space="preserve" font-family="OpenSans-Light" font-size="88.0" fill="#FFFFFF" transform="matrix(1.00, 0.00, -0.00, -1.00, 489.2, 950.0)">I</text><text xml:space="preserve" font-family="OpenSans-Light" font-size="88.0" fill="#FFFFFF" transform="matrix(1.00, 0.00, -0.00, -1.00, 511.4, 950.0)"> </text><text xml:space="preserve" font-family="OpenSans-Light" font-size="88.0" fill="#FFFFFF" transform="matrix(1.00, 0.00, -0.00, -1.00, 534.2, 950.0)">T</text><text xml:space="preserve" font-family="OpenSans-Light" font-size="88.0" fill="#FFFFFF" transform="matrix(1.00, 0.00, -0.00, -1.00, 580.3, 950.0)">R</text><text xml:space="preserve" font-family="OpenSans-Light" font-size="88.0" fill="#FFFFFF" transform="matrix(1.00, 0.00, -0.00, -1.00, 632.6, 950.0)">A</text><text xml:space="preserve" font-family="OpenSans-Light" font-size="88.0" fill="#FFFFFF" transform="matrix(1.00, 0.00, -0.00, -1.00, 685.4, 950.0)">D</text><text xml:space="preserve" font-family="OpenSans-Light" font-size="88.0" fill="#FFFFFF" transform="matrix(1.00, 0.00, -0.00, -1.00, 747.6, 950.0)">U</text><text xml:space="preserve" font-family="OpenSans-Light" font-size="88.0" fill="#FFFFFF" transform="matrix(1.00, 0.00, -0.00, -1.00, 810.9, 950.0)">I</text><text xml:space="preserve" font-family="OpenSans-Light" font-size="88.0" fill="#FFFFFF" transform="matrix(1.00, 0.00, -0.00, -1.00, 833.1, 950.0)">R</text><text xml:space="preserve" font-family="OpenSans-Light" font-size="88.0" fill="#FFFFFF" transform="matrix(1.00, 0.00, -0.00, -1.00, 885.4, 950.0)">E</text><text xml:space="preserve" font-family="OpenSans-Light" font-size="88.0" fill="#FFFFFF" transform="matrix(1.00, 0.00, -0.00, -1.00, 933.9, 950.0)"> </text><text xml:space="preserve" font-family="OpenSans-Light" font-size="88.0" fill="#FFFFFF" transform="matrix(1.00, 0.00, -0.00, -1.00, 956.8, 950.0)">?</text><image xlink:href="D1A86845B54FA3E46BCC1DF1AB3D2459.png" width="961.00" height="416.00" transform="matrix(1.39, 0.00, -0.00, -1.39, 293.0, 829.0)"></image><text xml:space="preserve" font-family="OpenSans" font-size="58.0" fill="#FEFFFF" transform="matrix(1.00, 0.00, -0.00, -1.00, 594.0, 119.0)">m</text><text xml:space="preserve" font-family="OpenSans" font-size="58.0" fill="#FEFFFF" transform="matrix(1.00, 0.00, -0.00, -1.00, 646.5, 119.0)">o</text><text xml:space="preserve" font-family="OpenSans" font-size="58.0" fill="#FEFFFF" transform="matrix(1.00, 0.00, -0.00, -1.00, 679.5, 119.0)">z</text><text xml:space="preserve" font-family="OpenSans" font-size="58.0" fill="#FEFFFF" transform="matrix(1.00, 0.00, -0.00, -1.00, 705.2, 119.0)">i</text><text xml:space="preserve" font-family="OpenSans" font-size="58.0" fill="#FEFFFF" transform="matrix(1.00, 0.00, -0.00, -1.00, 718.4, 119.0)">l</text><text xml:space="preserve" font-family="OpenSans" font-size="58.0" fill="#FEFFFF" transform="matrix(1.00, 0.00, -0.00, -1.00, 731.7, 119.0)">l</text><text xml:space="preserve" font-family="OpenSans" font-size="58.0" fill="#FEFFFF" transform="matrix(1.00, 0.00, -0.00, -1.00, 744.9, 119.0)">a</text><text xml:space="preserve" font-family="OpenSans" font-size="58.0" fill="#FEFFFF" transform="matrix(1.00, 0.00, -0.00, -1.00, 775.7, 119.0)">.</text><text xml:space="preserve" font-family="OpenSans" font-size="58.0" fill="#FEFFFF" transform="matrix(1.00, 0.00, -0.00, -1.00, 789.7, 119.0)">o</text><text xml:space="preserve" font-family="OpenSans" font-size="58.0" fill="#FEFFFF" transform="matrix(1.00, 0.00, -0.00, -1.00, 823.3, 119.0)">r</text><text xml:space="preserve" font-family="OpenSans" font-size="58.0" fill="#FEFFFF" transform="matrix(1.00, 0.00, -0.00, -1.00, 845.0, 119.0)">g</text><text xml:space="preserve" font-family="OpenSans" font-size="58.0" fill="#FEFFFF" transform="matrix(1.00, 0.00, -0.00, -1.00, 875.3, 119.0)">/</text><text xml:space="preserve" font-family="OpenSans" font-size="58.0" fill="#FEFFFF" transform="matrix(1.00, 0.00, -0.00, -1.00, 895.2, 119.0)">a</text><text xml:space="preserve" font-family="OpenSans" font-size="58.0" fill="#FEFFFF" transform="matrix(1.00, 0.00, -0.00, -1.00, 926.0, 119.0)">b</text><text xml:space="preserve" font-family="OpenSans" font-size="58.0" fill="#FEFFFF" transform="matrix(1.00, 0.00, -0.00, -1.00, 960.1, 119.0)">o</text><text xml:space="preserve" font-family="OpenSans" font-size="58.0" fill="#FEFFFF" transform="matrix(1.00, 0.00, -0.00, -1.00, 993.7, 119.0)">u</text><text xml:space="preserve" font-family="OpenSans" font-size="58.0" fill="#FEFFFF" transform="matrix(1.00, 0.00, -0.00, -1.00, 1027.9, 119.0)">t</text><text xml:space="preserve" font-family="OpenSans" font-size="58.0" fill="#FEFFFF" transform="matrix(1.00, 0.00, -0.00, -1.00, 1046.9, 119.0)">/</text><text xml:space="preserve" font-family="OpenSans" font-size="58.0" fill="#FEFFFF" transform="matrix(1.00, 0.00, -0.00, -1.00, 1066.7, 119.0)">m</text><text xml:space="preserve" font-family="OpenSans" font-size="58.0" fill="#FEFFFF" transform="matrix(1.00, 0.00, -0.00, -1.00, 1119.3, 119.0)">a</text><text xml:space="preserve" font-family="OpenSans" font-size="58.0" fill="#FEFFFF" transform="matrix(1.00, 0.00, -0.00, -1.00, 1150.1, 119.0)">n</text><text xml:space="preserve" font-family="OpenSans" font-size="58.0" fill="#FEFFFF" transform="matrix(1.00, 0.00, -0.00, -1.00, 1184.2, 119.0)">i</text><text xml:space="preserve" font-family="OpenSans" font-size="58.0" fill="#FEFFFF" transform="matrix(1.00, 0.00, -0.00, -1.00, 1197.5, 119.0)">f</text><text xml:space="preserve" font-family="OpenSans" font-size="58.0" fill="#FEFFFF" transform="matrix(1.00, 0.00, -0.00, -1.00, 1215.7, 119.0)">e</text><text xml:space="preserve" font-family="OpenSans" font-size="58.0" fill="#FEFFFF" transform="matrix(1.00, 0.00, -0.00, -1.00, 1246.8, 119.0)">s</text><text xml:space="preserve" font-family="OpenSans" font-size="58.0" fill="#FEFFFF" transform="matrix(1.00, 0.00, -0.00, -1.00, 1273.0, 119.0)">t</text><text xml:space="preserve" font-family="OpenSans" font-size="58.0" fill="#FEFFFF" transform="matrix(1.00, 0.00, -0.00, -1.00, 1292.1, 119.0)">o</text><g><clipPath id="clip-65"><path d="M 593.3 112.3 L 1325.7 112.3 L 1325.7 117.2 L 593.3 117.2 Z M 593.3 112.3 "></path></clipPath><g clip-path="url(#clip-65)"><path d="M 4.5 70.4 L 735.9 70.4 " fill="none" stroke="#FEFFFF" stroke-width="2.89" stroke-miterlimit="0.00" transform="matrix(1.00, 0.00, 0.00, -1.00, 589.8, 185.1)"></path></g></g></g></svg>