<?xml version="1.0" encoding="UTF-8" standalone="no"?><svg xmlns="http://www.w3.org/2000/svg" xmlns:xlink="http://www.w3.org/1999/xlink" clip-rule="evenodd" stroke-miterlimit="4.00" viewBox="0 0 1920 1080"><desc>SVG generated by Keynote</desc><defs></defs><g transform="matrix(1.00, 0.00, -0.00, -1.00, 0.0, 1080.0)"><g><clipPath id="clip-63"><path d="M 0.0 1080.0 L 1920.0 1080.0 L 1920.0 0.0 L 0.0 0.0 Z M 0.0 1080.0 "></path></clipPath><g clip-path="url(#clip-63)"><image xlink:href="../../5DDE46E5-DB9F-4075-BD33-5328BEB277AD/assets/99AF0EC6EA4AD453B64B8E615783AC40.png" width="960.00" height="768.00" transform="matrix(2.00, 0.00, -0.00, -1.41, 0.0, 1080.0)"></image></g></g><image xlink:href="../../5DDE46E5-DB9F-4075-BD33-5328BEB277AD/assets/FFB0A1D70778ABBA732A48CD20F69EE9.png" width="146.00" height="39.00" transform="matrix(0.99, 0.00, -0.00, -1.00, 1725.0, 1080.0)"></image><text xml:space="preserve" font-family="OpenSans-Light" font-size="88.0" fill="#FFFFFF" transform="matrix(1.00, 0.00, -0.00, -1.00, 57.0, 950.0)">L</text><text xml:space="preserve" font-family="OpenSans-Light" font-size="88.0" fill="#FFFFFF" transform="matrix(1.00, 0.00, -0.00, -1.00, 100.4, 950.0)">O</text><text xml:space="preserve" font-family="OpenSans-Light" font-size="88.0" fill="#FFFFFF" transform="matrix(1.00, 0.00, -0.00, -1.00, 167.7, 950.0)">C</text><text xml:space="preserve" font-family="OpenSans-Light" font-size="88.0" fill="#FFFFFF" transform="matrix(1.00, 0.00, -0.00, -1.00, 222.3, 950.0)">A</text><text xml:space="preserve" font-family="OpenSans-Light" font-size="88.0" fill="#FFFFFF" transform="matrix(1.00, 0.00, -0.00, -1.00, 275.2, 950.0)">L</text><text xml:space="preserve" font-family="OpenSans-Light" font-size="88.0" fill="#FFFFFF" transform="matrix(1.00, 0.00, -0.00, -1.00, 320.3, 950.0)">I</text><text xml:space="preserve" font-family="OpenSans-Light" font-size="88.0" fill="#FFFFFF" transform="matrix(1.00, 0.00, -0.00, -1.00, 342.5, 950.0)">S</text><text xml:space="preserve" font-family="OpenSans-Light" font-size="88.0" fill="#FFFFFF" transform="matrix(1.00, 0.00, -0.00, -1.00, 390.5, 950.0)">A</text><text xml:space="preserve" font-family="OpenSans-Light" font-size="88.0" fill="#FFFFFF" transform="matrix(1.00, 0.00, -0.00, -1.00, 437.1, 950.0)">T</text><text xml:space="preserve" font-family="OpenSans-Light" font-size="88.0" fill="#FFFFFF" transform="matrix(1.00, 0.00, -0.00, -1.00, 483.2, 950.0)">I</text><text xml:space="preserve" font-family="OpenSans-Light" font-size="88.0" fill="#FFFFFF" transform="matrix(1.00, 0.00, -0.00, -1.00, 505.4, 950.0)">O</text><text xml:space="preserve" font-family="OpenSans-Light" font-size="88.0" fill="#FFFFFF" transform="matrix(1.00, 0.00, -0.00, -1.00, 572.7, 950.0)">N</text><text xml:space="preserve" font-family="OpenSans-Light" font-size="88.0" fill="#FFFFFF" transform="matrix(1.00, 0.00, -0.00, -1.00, 636.1, 950.0)"> </text><text xml:space="preserve" font-family="OpenSans-Light" font-size="88.0" fill="#FFFFFF" transform="matrix(1.00, 0.00, -0.00, -1.00, 659.0, 950.0)">?</text><text xml:space="preserve" font-family="OpenSans-Light" font-size="88.0" fill="#FEFFFF" transform="matrix(1.00, 0.00, -0.00, -1.00, 577.0, 506.0)">L</text><text xml:space="preserve" font-family="OpenSans-Light" font-size="88.0" fill="#FEFFFF" transform="matrix(1.00, 0.00, -0.00, -1.00, 620.0, 506.0)">1</text><text xml:space="preserve" font-family="OpenSans-Light" font-size="88.0" fill="#FEFFFF" transform="matrix(1.00, 0.00, -0.00, -1.00, 668.0, 506.0)">0</text><text xml:space="preserve" font-family="OpenSans-Light" font-size="88.0" fill="#FEFFFF" transform="matrix(1.00, 0.00, -0.00, -1.00, 716.1, 506.0)">N</text><text xml:space="preserve" font-family="OpenSans-Light" font-size="88.0" fill="#FEFFFF" transform="matrix(1.00, 0.00, -0.00, -1.00, 777.4, 506.0)"> </text><text xml:space="preserve" font-family="OpenSans-Light" font-size="88.0" fill="#FEFFFF" transform="matrix(1.00, 0.00, -0.00, -1.00, 798.0, 506.0)">-</text><text xml:space="preserve" font-family="OpenSans-Light" font-size="88.0" fill="#FEFFFF" transform="matrix(1.00, 0.00, -0.00, -1.00, 824.2, 506.0)">&gt;</text><text xml:space="preserve" font-family="OpenSans-Light" font-size="88.0" fill="#FEFFFF" transform="matrix(1.00, 0.00, -0.00, -1.00, 872.2, 506.0)"> </text><text xml:space="preserve" font-family="OpenSans-Light" font-size="88.0" fill="#FEFFFF" transform="matrix(1.00, 0.00, -0.00, -1.00, 892.9, 506.0)">L</text><text xml:space="preserve" font-family="OpenSans-Light" font-size="88.0" fill="#FEFFFF" transform="matrix(1.00, 0.00, -0.00, -1.00, 935.9, 506.0)">o</text><text xml:space="preserve" font-family="OpenSans-Light" font-size="88.0" fill="#FEFFFF" transform="matrix(1.00, 0.00, -0.00, -1.00, 985.3, 506.0)">c</text><text xml:space="preserve" font-family="OpenSans-Light" font-size="88.0" fill="#FEFFFF" transform="matrix(1.00, 0.00, -0.00, -1.00, 1024.9, 506.0)">a</text><text xml:space="preserve" font-family="OpenSans-Light" font-size="88.0" fill="#FEFFFF" transform="matrix(1.00, 0.00, -0.00, -1.00, 1069.3, 506.0)">l</text><text xml:space="preserve" font-family="OpenSans-Light" font-size="88.0" fill="#FEFFFF" transform="matrix(1.00, 0.00, -0.00, -1.00, 1087.0, 506.0)">i</text><text xml:space="preserve" font-family="OpenSans-Light" font-size="88.0" fill="#FEFFFF" transform="matrix(1.00, 0.00, -0.00, -1.00, 1104.7, 506.0)">z</text><text xml:space="preserve" font-family="OpenSans-Light" font-size="88.0" fill="#FEFFFF" transform="matrix(1.00, 0.00, -0.00, -1.00, 1143.1, 506.0)">a</text><text xml:space="preserve" font-family="OpenSans-Light" font-size="88.0" fill="#FEFFFF" transform="matrix(1.00, 0.00, -0.00, -1.00, 1187.6, 506.0)">t</text><text xml:space="preserve" font-family="OpenSans-Light" font-size="88.0" fill="#FEFFFF" transform="matrix(1.00, 0.00, -0.00, -1.00, 1214.9, 506.0)">i</text><text xml:space="preserve" font-family="OpenSans-Light" font-size="88.0" fill="#FEFFFF" transform="matrix(1.00, 0.00, -0.00, -1.00, 1232.6, 506.0)">o</text><text xml:space="preserve" font-family="OpenSans-Light" font-size="88.0" fill="#FEFFFF" transform="matrix(1.00, 0.00, -0.00, -1.00, 1281.9, 506.0)">N</text></g></svg>