<?xml version="1.0" encoding="UTF-8" standalone="no"?><svg xmlns="http://www.w3.org/2000/svg" xmlns:xlink="http://www.w3.org/1999/xlink" clip-rule="evenodd" stroke-miterlimit="4.00" viewBox="0 0 1920 1080"><desc>SVG generated by Keynote</desc><defs></defs><g transform="matrix(1.00, 0.00, -0.00, -1.00, 0.0, 1080.0)"><g><clipPath id="clip-106"><path d="M 0.0 1080.0 L 1920.0 1080.0 L 1920.0 0.0 L 0.0 0.0 Z M 0.0 1080.0 "></path></clipPath><g clip-path="url(#clip-106)"><image xlink:href="../../5DDE46E5-DB9F-4075-BD33-5328BEB277AD/assets/99AF0EC6EA4AD453B64B8E615783AC40.png" width="960.00" height="768.00" transform="matrix(2.00, 0.00, -0.00, -1.41, 0.0, 1080.0)"></image></g></g><image xlink:href="../../5DDE46E5-DB9F-4075-BD33-5328BEB277AD/assets/FFB0A1D70778ABBA732A48CD20F69EE9.png" width="146.00" height="39.00" transform="matrix(0.99, 0.00, -0.00, -1.00, 1725.0, 1080.0)"></image><text xml:space="preserve" font-family="OpenSans-Light" font-size="88.0" fill="#FFFFFF" transform="matrix(1.00, 0.00, -0.00, -1.00, 142.0, 616.0)">N</text><text xml:space="preserve" font-family="OpenSans-Light" font-size="88.0" fill="#FFFFFF" transform="matrix(1.00, 0.00, -0.00, -1.00, 205.5, 616.0)">I</text><text xml:space="preserve" font-family="OpenSans-Light" font-size="88.0" fill="#FFFFFF" transform="matrix(1.00, 0.00, -0.00, -1.00, 227.7, 616.0)">G</text><text xml:space="preserve" font-family="OpenSans-Light" font-size="88.0" fill="#FFFFFF" transform="matrix(1.00, 0.00, -0.00, -1.00, 291.3, 616.0)">H</text><text xml:space="preserve" font-family="OpenSans-Light" font-size="88.0" fill="#FFFFFF" transform="matrix(1.00, 0.00, -0.00, -1.00, 354.6, 616.0)">T</text><text xml:space="preserve" font-family="OpenSans-Light" font-size="88.0" fill="#FFFFFF" transform="matrix(1.00, 0.00, -0.00, -1.00, 400.7, 616.0)">L</text><text xml:space="preserve" font-family="OpenSans-Light" font-size="88.0" fill="#FFFFFF" transform="matrix(1.00, 0.00, -0.00, -1.00, 443.3, 616.0)">Y</text><text xml:space="preserve" font-family="OpenSans-Light" font-size="88.0" fill="#FFFFFF" transform="matrix(1.00, 0.00, -0.00, -1.00, 489.7, 616.0)"> </text><text xml:space="preserve" font-family="OpenSans-Light" font-size="88.0" fill="#FFFFFF" transform="matrix(1.00, 0.00, -0.00, -1.00, 512.5, 616.0)">C</text><text xml:space="preserve" font-family="OpenSans-Light" font-size="88.0" fill="#FFFFFF" transform="matrix(1.00, 0.00, -0.00, -1.00, 565.4, 616.0)">O</text><text xml:space="preserve" font-family="OpenSans-Light" font-size="88.0" fill="#FFFFFF" transform="matrix(1.00, 0.00, -0.00, -1.00, 632.7, 616.0)">M</text><text xml:space="preserve" font-family="OpenSans-Light" font-size="88.0" fill="#FFFFFF" transform="matrix(1.00, 0.00, -0.00, -1.00, 708.6, 616.0)">M</text><text xml:space="preserve" font-family="OpenSans-Light" font-size="88.0" fill="#FFFFFF" transform="matrix(1.00, 0.00, -0.00, -1.00, 784.5, 616.0)">E</text><text xml:space="preserve" font-family="OpenSans-Light" font-size="88.0" fill="#FFFFFF" transform="matrix(1.00, 0.00, -0.00, -1.00, 833.1, 616.0)"> </text><text xml:space="preserve" font-family="OpenSans-Light" font-size="88.0" fill="#FFFFFF" transform="matrix(1.00, 0.00, -0.00, -1.00, 235.0, 496.0)">N</text><text xml:space="preserve" font-family="OpenSans-Light" font-size="88.0" fill="#FFFFFF" transform="matrix(1.00, 0.00, -0.00, -1.00, 298.5, 496.0)">A</text><text xml:space="preserve" font-family="OpenSans-Light" font-size="88.0" fill="#FFFFFF" transform="matrix(1.00, 0.00, -0.00, -1.00, 347.8, 496.0)">V</text><text xml:space="preserve" font-family="OpenSans-Light" font-size="88.0" fill="#FFFFFF" transform="matrix(1.00, 0.00, -0.00, -1.00, 398.6, 496.0)">I</text><text xml:space="preserve" font-family="OpenSans-Light" font-size="88.0" fill="#FFFFFF" transform="matrix(1.00, 0.00, -0.00, -1.00, 420.7, 496.0)">G</text><text xml:space="preserve" font-family="OpenSans-Light" font-size="88.0" fill="#FFFFFF" transform="matrix(1.00, 0.00, -0.00, -1.00, 484.4, 496.0)">A</text><text xml:space="preserve" font-family="OpenSans-Light" font-size="88.0" fill="#FFFFFF" transform="matrix(1.00, 0.00, -0.00, -1.00, 531.1, 496.0)">T</text><text xml:space="preserve" font-family="OpenSans-Light" font-size="88.0" fill="#FFFFFF" transform="matrix(1.00, 0.00, -0.00, -1.00, 577.2, 496.0)">E</text><text xml:space="preserve" font-family="OpenSans-Light" font-size="88.0" fill="#FFFFFF" transform="matrix(1.00, 0.00, -0.00, -1.00, 625.7, 496.0)">U</text><text xml:space="preserve" font-family="OpenSans-Light" font-size="88.0" fill="#FFFFFF" transform="matrix(1.00, 0.00, -0.00, -1.00, 689.0, 496.0)">R</text><text xml:space="preserve" font-family="OpenSans-Light" font-size="88.0" fill="#FFFFFF" transform="matrix(1.00, 0.00, -0.00, -1.00, 741.3, 496.0)"> </text><text xml:space="preserve" font-family="OpenSans-Light" font-size="88.0" fill="#FFFFFF" transform="matrix(1.00, 0.00, -0.00, -1.00, 282.0, 376.0)">P</text><text xml:space="preserve" font-family="OpenSans-Light" font-size="88.0" fill="#FFFFFF" transform="matrix(1.00, 0.00, -0.00, -1.00, 333.5, 376.0)">R</text><text xml:space="preserve" font-family="OpenSans-Light" font-size="88.0" fill="#FFFFFF" transform="matrix(1.00, 0.00, -0.00, -1.00, 385.8, 376.0)">I</text><text xml:space="preserve" font-family="OpenSans-Light" font-size="88.0" fill="#FFFFFF" transform="matrix(1.00, 0.00, -0.00, -1.00, 408.0, 376.0)">N</text><text xml:space="preserve" font-family="OpenSans-Light" font-size="88.0" fill="#FFFFFF" transform="matrix(1.00, 0.00, -0.00, -1.00, 471.4, 376.0)">C</text><text xml:space="preserve" font-family="OpenSans-Light" font-size="88.0" fill="#FFFFFF" transform="matrix(1.00, 0.00, -0.00, -1.00, 526.1, 376.0)">I</text><text xml:space="preserve" font-family="OpenSans-Light" font-size="88.0" fill="#FFFFFF" transform="matrix(1.00, 0.00, -0.00, -1.00, 548.3, 376.0)">P</text><text xml:space="preserve" font-family="OpenSans-Light" font-size="88.0" fill="#FFFFFF" transform="matrix(1.00, 0.00, -0.00, -1.00, 595.4, 376.0)">A</text><text xml:space="preserve" font-family="OpenSans-Light" font-size="88.0" fill="#FFFFFF" transform="matrix(1.00, 0.00, -0.00, -1.00, 648.2, 376.0)">L</text><image xlink:href="C32814F2345DBE18F589D22AB6D6AB5F.png" width="718.00" height="540.00" transform="matrix(1.26, 0.00, -0.00, -1.26, 955.0, 881.0)"></image><path d="M 0.0 0.0 L 80.1 0.0 " fill="none" stroke="#C82505" stroke-width="7.00" transform="matrix(1.00, 0.00, 0.00, -1.00, 1595.4, 450.9)"></path></g></svg>