<?xml version="1.0" encoding="UTF-8" standalone="no"?><svg xmlns="http://www.w3.org/2000/svg" xmlns:xlink="http://www.w3.org/1999/xlink" clip-rule="evenodd" stroke-miterlimit="4.00" viewBox="0 0 1920 1080"><desc>SVG generated by Keynote</desc><defs></defs><g transform="matrix(1.00, 0.00, -0.00, -1.00, 0.0, 1080.0)"><g><clipPath id="clip-101"><path d="M 0.0 1080.0 L 1920.0 1080.0 L 1920.0 0.0 L 0.0 0.0 Z M 0.0 1080.0 "></path></clipPath><g clip-path="url(#clip-101)"><image xlink:href="../../2677DC75-44AA-4362-8194-690EDA55041B/assets/8CB06E0CD672379C9A3B0841311F1144.png" width="961.00" height="541.00" transform="matrix(2.00, 0.00, -0.00, -2.00, 0.0, 1080.0)"></image></g></g><image xlink:href="../../5DDE46E5-DB9F-4075-BD33-5328BEB277AD/assets/FFB0A1D70778ABBA732A48CD20F69EE9.png" width="146.00" height="39.00" transform="matrix(0.99, 0.00, -0.00, -1.00, 1725.0, 1080.0)"></image><text xml:space="preserve" font-family="OpenSans-Light" font-size="88.0" fill="#FFFFFF" transform="matrix(1.00, 0.00, -0.00, -1.00, 57.0, 950.0)">C</text><text xml:space="preserve" font-family="OpenSans-Light" font-size="88.0" fill="#FFFFFF" transform="matrix(1.00, 0.00, -0.00, -1.00, 109.9, 950.0)">O</text><text xml:space="preserve" font-family="OpenSans-Light" font-size="88.0" fill="#FFFFFF" transform="matrix(1.00, 0.00, -0.00, -1.00, 177.2, 950.0)">M</text><text xml:space="preserve" font-family="OpenSans-Light" font-size="88.0" fill="#FFFFFF" transform="matrix(1.00, 0.00, -0.00, -1.00, 253.1, 950.0)">M</text><text xml:space="preserve" font-family="OpenSans-Light" font-size="88.0" fill="#FFFFFF" transform="matrix(1.00, 0.00, -0.00, -1.00, 329.0, 950.0)">E</text><text xml:space="preserve" font-family="OpenSans-Light" font-size="88.0" fill="#FFFFFF" transform="matrix(1.00, 0.00, -0.00, -1.00, 377.6, 950.0)">N</text><text xml:space="preserve" font-family="OpenSans-Light" font-size="88.0" fill="#FFFFFF" transform="matrix(1.00, 0.00, -0.00, -1.00, 441.1, 950.0)">T</text><text xml:space="preserve" font-family="OpenSans-Light" font-size="88.0" fill="#FFFFFF" transform="matrix(1.00, 0.00, -0.00, -1.00, 487.2, 950.0)"> </text><text xml:space="preserve" font-family="OpenSans-Light" font-size="88.0" fill="#FFFFFF" transform="matrix(1.00, 0.00, -0.00, -1.00, 510.0, 950.0)">?</text><text xml:space="preserve" font-family="OpenSans" font-size="42.6" fill="#FFFFFF" transform="matrix(1.00, 0.00, -0.00, -1.00, 57.0, 560.0)">•</text><text xml:space="preserve" font-family="OpenSans" font-size="52.0" fill="#FFFFFF" transform="matrix(1.00, 0.00, -0.00, -1.00, 81.0, 556.0)">E</text><text xml:space="preserve" font-family="OpenSans" font-size="52.0" fill="#FFFFFF" transform="matrix(1.00, 0.00, -0.00, -1.00, 109.9, 556.0)">n</text><text xml:space="preserve" font-family="OpenSans" font-size="52.0" fill="#FFFFFF" transform="matrix(1.00, 0.00, -0.00, -1.00, 141.8, 556.0)"> </text><text xml:space="preserve" font-family="OpenSans" font-size="52.0" fill="#FFFFFF" transform="matrix(1.00, 0.00, -0.00, -1.00, 155.3, 556.0)">u</text><text xml:space="preserve" font-family="OpenSans" font-size="52.0" fill="#FFFFFF" transform="matrix(1.00, 0.00, -0.00, -1.00, 187.2, 556.0)">t</text><text xml:space="preserve" font-family="OpenSans" font-size="52.0" fill="#FFFFFF" transform="matrix(1.00, 0.00, -0.00, -1.00, 205.6, 556.0)">i</text><text xml:space="preserve" font-family="OpenSans" font-size="52.0" fill="#FFFFFF" transform="matrix(1.00, 0.00, -0.00, -1.00, 218.7, 556.0)">l</text><text xml:space="preserve" font-family="OpenSans" font-size="52.0" fill="#FFFFFF" transform="matrix(1.00, 0.00, -0.00, -1.00, 231.9, 556.0)">i</text><text xml:space="preserve" font-family="OpenSans" font-size="52.0" fill="#FFFFFF" transform="matrix(1.00, 0.00, -0.00, -1.00, 245.0, 556.0)">s</text><text xml:space="preserve" font-family="OpenSans" font-size="52.0" fill="#FFFFFF" transform="matrix(1.00, 0.00, -0.00, -1.00, 269.8, 556.0)">a</text><text xml:space="preserve" font-family="OpenSans" font-size="52.0" fill="#FFFFFF" transform="matrix(1.00, 0.00, -0.00, -1.00, 298.8, 556.0)">n</text><text xml:space="preserve" font-family="OpenSans" font-size="52.0" fill="#FFFFFF" transform="matrix(1.00, 0.00, -0.00, -1.00, 330.7, 556.0)">t</text><text xml:space="preserve" font-family="OpenSans" font-size="52.0" fill="#FFFFFF" transform="matrix(1.00, 0.00, -0.00, -1.00, 349.0, 556.0)"> </text><text xml:space="preserve" font-family="OpenSans" font-size="52.0" fill="#FFFFFF" transform="matrix(1.00, 0.00, -0.00, -1.00, 362.5, 556.0)">T</text><text xml:space="preserve" font-family="OpenSans" font-size="52.0" fill="#FFFFFF" transform="matrix(1.00, 0.00, -0.00, -1.00, 388.7, 556.0)">r</text><text xml:space="preserve" font-family="OpenSans" font-size="52.0" fill="#FFFFFF" transform="matrix(1.00, 0.00, -0.00, -1.00, 408.9, 556.0)">a</text><text xml:space="preserve" font-family="OpenSans" font-size="52.0" fill="#FFFFFF" transform="matrix(1.00, 0.00, -0.00, -1.00, 437.9, 556.0)">n</text><text xml:space="preserve" font-family="OpenSans" font-size="52.0" fill="#FFFFFF" transform="matrix(1.00, 0.00, -0.00, -1.00, 469.8, 556.0)">s</text><text xml:space="preserve" font-family="OpenSans" font-size="52.0" fill="#FFFFFF" transform="matrix(1.00, 0.00, -0.00, -1.00, 494.6, 556.0)">v</text><text xml:space="preserve" font-family="OpenSans" font-size="52.0" fill="#FFFFFF" transform="matrix(1.00, 0.00, -0.00, -1.00, 520.6, 556.0)">i</text><text xml:space="preserve" font-family="OpenSans" font-size="52.0" fill="#FFFFFF" transform="matrix(1.00, 0.00, -0.00, -1.00, 533.8, 556.0)">s</text><text xml:space="preserve" font-family="OpenSans" font-size="52.0" fill="#FFFFFF" transform="matrix(1.00, 0.00, -0.00, -1.00, 558.6, 556.0)">i</text><text xml:space="preserve" font-family="OpenSans" font-size="52.0" fill="#FFFFFF" transform="matrix(1.00, 0.00, -0.00, -1.00, 571.7, 556.0)">o</text><text xml:space="preserve" font-family="OpenSans" font-size="52.0" fill="#FFFFFF" transform="matrix(1.00, 0.00, -0.00, -1.00, 603.1, 556.0)">n</text><text xml:space="preserve" font-family="OpenSans" font-size="52.0" fill="#FFFFFF" transform="matrix(1.00, 0.00, -0.00, -1.00, 635.0, 556.0)"> </text><text xml:space="preserve" font-family="OpenSans" font-size="52.0" fill="#FFFFFF" transform="matrix(1.00, 0.00, -0.00, -1.00, 648.5, 556.0)">(</text><text xml:space="preserve" font-family="OpenSans" font-size="52.0" fill="#FFFFFF" transform="matrix(1.00, 0.00, -0.00, -1.00, 663.9, 556.0)">p</text><text xml:space="preserve" font-family="OpenSans" font-size="52.0" fill="#FFFFFF" transform="matrix(1.00, 0.00, -0.00, -1.00, 695.8, 556.0)">o</text><text xml:space="preserve" font-family="OpenSans" font-size="52.0" fill="#FFFFFF" transform="matrix(1.00, 0.00, -0.00, -1.00, 727.2, 556.0)">u</text><text xml:space="preserve" font-family="OpenSans" font-size="52.0" fill="#FFFFFF" transform="matrix(1.00, 0.00, -0.00, -1.00, 759.1, 556.0)">r</text><text xml:space="preserve" font-family="OpenSans" font-size="52.0" fill="#FFFFFF" transform="matrix(1.00, 0.00, -0.00, -1.00, 780.3, 556.0)"> </text><text xml:space="preserve" font-family="OpenSans" font-size="52.0" fill="#FFFFFF" transform="matrix(1.00, 0.00, -0.00, -1.00, 793.8, 556.0)">t</text><text xml:space="preserve" font-family="OpenSans" font-size="52.0" fill="#FFFFFF" transform="matrix(1.00, 0.00, -0.00, -1.00, 812.2, 556.0)">r</text><text xml:space="preserve" font-family="OpenSans" font-size="52.0" fill="#FFFFFF" transform="matrix(1.00, 0.00, -0.00, -1.00, 832.4, 556.0)">a</text><text xml:space="preserve" font-family="OpenSans" font-size="52.0" fill="#FFFFFF" transform="matrix(1.00, 0.00, -0.00, -1.00, 861.3, 556.0)">d</text><text xml:space="preserve" font-family="OpenSans" font-size="52.0" fill="#FFFFFF" transform="matrix(1.00, 0.00, -0.00, -1.00, 893.2, 556.0)">u</text><text xml:space="preserve" font-family="OpenSans" font-size="52.0" fill="#FFFFFF" transform="matrix(1.00, 0.00, -0.00, -1.00, 925.1, 556.0)">i</text><text xml:space="preserve" font-family="OpenSans" font-size="52.0" fill="#FFFFFF" transform="matrix(1.00, 0.00, -0.00, -1.00, 938.2, 556.0)">r</text><text xml:space="preserve" font-family="OpenSans" font-size="52.0" fill="#FFFFFF" transform="matrix(1.00, 0.00, -0.00, -1.00, 958.4, 556.0)">e</text><text xml:space="preserve" font-family="OpenSans" font-size="52.0" fill="#FFFFFF" transform="matrix(1.00, 0.00, -0.00, -1.00, 987.6, 556.0)"> </text><text xml:space="preserve" font-family="OpenSans" font-size="52.0" fill="#FFFFFF" transform="matrix(1.00, 0.00, -0.00, -1.00, 1001.1, 556.0)">S</text><text xml:space="preserve" font-family="OpenSans" font-size="52.0" fill="#FFFFFF" transform="matrix(1.00, 0.00, -0.00, -1.00, 1029.6, 556.0)">U</text><text xml:space="preserve" font-family="OpenSans" font-size="52.0" fill="#FFFFFF" transform="matrix(1.00, 0.00, -0.00, -1.00, 1067.5, 556.0)">M</text><text xml:space="preserve" font-family="OpenSans" font-size="52.0" fill="#FFFFFF" transform="matrix(1.00, 0.00, -0.00, -1.00, 1114.4, 556.0)">O</text><text xml:space="preserve" font-family="OpenSans" font-size="52.0" fill="#FFFFFF" transform="matrix(1.00, 0.00, -0.00, -1.00, 1152.8, 556.0)">,</text><text xml:space="preserve" font-family="OpenSans" font-size="52.0" fill="#FFFFFF" transform="matrix(1.00, 0.00, -0.00, -1.00, 1165.6, 556.0)"> </text><text xml:space="preserve" font-family="OpenSans" font-size="52.0" fill="#FFFFFF" transform="matrix(1.00, 0.00, -0.00, -1.00, 1179.1, 556.0)">u</text><text xml:space="preserve" font-family="OpenSans" font-size="52.0" fill="#FFFFFF" transform="matrix(1.00, 0.00, -0.00, -1.00, 1211.0, 556.0)">n</text><text xml:space="preserve" font-family="OpenSans" font-size="52.0" fill="#FFFFFF" transform="matrix(1.00, 0.00, -0.00, -1.00, 1242.9, 556.0)"> </text><text xml:space="preserve" font-family="OpenSans" font-size="52.0" fill="#FFFFFF" transform="matrix(1.00, 0.00, -0.00, -1.00, 1256.4, 556.0)">s</text><text xml:space="preserve" font-family="OpenSans" font-size="52.0" fill="#FFFFFF" transform="matrix(1.00, 0.00, -0.00, -1.00, 1281.2, 556.0)">i</text><text xml:space="preserve" font-family="OpenSans" font-size="52.0" fill="#FFFFFF" transform="matrix(1.00, 0.00, -0.00, -1.00, 1294.3, 556.0)">t</text><text xml:space="preserve" font-family="OpenSans" font-size="52.0" fill="#FFFFFF" transform="matrix(1.00, 0.00, -0.00, -1.00, 1312.7, 556.0)">e</text><text xml:space="preserve" font-family="OpenSans" font-size="52.0" fill="#FFFFFF" transform="matrix(1.00, 0.00, -0.00, -1.00, 1341.9, 556.0)"> </text><text xml:space="preserve" font-family="OpenSans" font-size="52.0" fill="#FFFFFF" transform="matrix(1.00, 0.00, -0.00, -1.00, 1355.4, 556.0)">w</text><text xml:space="preserve" font-family="OpenSans" font-size="52.0" fill="#FFFFFF" transform="matrix(1.00, 0.00, -0.00, -1.00, 1395.8, 556.0)">e</text><text xml:space="preserve" font-family="OpenSans" font-size="52.0" fill="#FFFFFF" transform="matrix(1.00, 0.00, -0.00, -1.00, 1425.0, 556.0)">b</text><text xml:space="preserve" font-family="OpenSans" font-size="52.0" fill="#FFFFFF" transform="matrix(1.00, 0.00, -0.00, -1.00, 1456.8, 556.0)">…</text><text xml:space="preserve" font-family="OpenSans" font-size="52.0" fill="#FFFFFF" transform="matrix(1.00, 0.00, -0.00, -1.00, 1497.6, 556.0)">)</text><text xml:space="preserve" font-family="OpenSans" font-size="52.0" fill="#FFFFFF" transform="matrix(1.00, 0.00, -0.00, -1.00, 1513.0, 556.0)"> </text><text xml:space="preserve" font-family="OpenSans" font-size="42.6" fill="#FFFFFF" transform="matrix(1.00, 0.00, -0.00, -1.00, 57.0, 435.0)">•</text><text xml:space="preserve" font-family="OpenSans" font-size="52.0" fill="#FFFFFF" transform="matrix(1.00, 0.00, -0.00, -1.00, 81.0, 431.0)">E</text><text xml:space="preserve" font-family="OpenSans" font-size="52.0" fill="#FFFFFF" transform="matrix(1.00, 0.00, -0.00, -1.00, 109.9, 431.0)">n</text><text xml:space="preserve" font-family="OpenSans" font-size="52.0" fill="#FFFFFF" transform="matrix(1.00, 0.00, -0.00, -1.00, 141.8, 431.0)"> </text><text xml:space="preserve" font-family="OpenSans" font-size="52.0" fill="#FFFFFF" transform="matrix(1.00, 0.00, -0.00, -1.00, 155.3, 431.0)">r</text><text xml:space="preserve" font-family="OpenSans" font-size="52.0" fill="#FFFFFF" transform="matrix(1.00, 0.00, -0.00, -1.00, 175.5, 431.0)">e</text><text xml:space="preserve" font-family="OpenSans" font-size="52.0" fill="#FFFFFF" transform="matrix(1.00, 0.00, -0.00, -1.00, 204.7, 431.0)">l</text><text xml:space="preserve" font-family="OpenSans" font-size="52.0" fill="#FFFFFF" transform="matrix(1.00, 0.00, -0.00, -1.00, 217.9, 431.0)">i</text><text xml:space="preserve" font-family="OpenSans" font-size="52.0" fill="#FFFFFF" transform="matrix(1.00, 0.00, -0.00, -1.00, 231.0, 431.0)">s</text><text xml:space="preserve" font-family="OpenSans" font-size="52.0" fill="#FFFFFF" transform="matrix(1.00, 0.00, -0.00, -1.00, 255.8, 431.0)">a</text><text xml:space="preserve" font-family="OpenSans" font-size="52.0" fill="#FFFFFF" transform="matrix(1.00, 0.00, -0.00, -1.00, 284.7, 431.0)">n</text><text xml:space="preserve" font-family="OpenSans" font-size="52.0" fill="#FFFFFF" transform="matrix(1.00, 0.00, -0.00, -1.00, 316.6, 431.0)">t</text><text xml:space="preserve" font-family="OpenSans" font-size="52.0" fill="#FFFFFF" transform="matrix(1.00, 0.00, -0.00, -1.00, 335.0, 431.0)"> </text><text xml:space="preserve" font-family="OpenSans" font-size="52.0" fill="#FFFFFF" transform="matrix(1.00, 0.00, -0.00, -1.00, 348.5, 431.0)">l</text><text xml:space="preserve" font-family="OpenSans" font-size="52.0" fill="#FFFFFF" transform="matrix(1.00, 0.00, -0.00, -1.00, 361.6, 431.0)">e</text><text xml:space="preserve" font-family="OpenSans" font-size="52.0" fill="#FFFFFF" transform="matrix(1.00, 0.00, -0.00, -1.00, 390.8, 431.0)">s</text><text xml:space="preserve" font-family="OpenSans" font-size="52.0" fill="#FFFFFF" transform="matrix(1.00, 0.00, -0.00, -1.00, 415.6, 431.0)"> </text><text xml:space="preserve" font-family="OpenSans" font-size="52.0" fill="#FFFFFF" transform="matrix(1.00, 0.00, -0.00, -1.00, 429.1, 431.0)">n</text><text xml:space="preserve" font-family="OpenSans" font-size="52.0" fill="#FFFFFF" transform="matrix(1.00, 0.00, -0.00, -1.00, 461.0, 431.0)">o</text><text xml:space="preserve" font-family="OpenSans" font-size="52.0" fill="#FFFFFF" transform="matrix(1.00, 0.00, -0.00, -1.00, 492.4, 431.0)">u</text><text xml:space="preserve" font-family="OpenSans" font-size="52.0" fill="#FFFFFF" transform="matrix(1.00, 0.00, -0.00, -1.00, 524.4, 431.0)">v</text><text xml:space="preserve" font-family="OpenSans" font-size="52.0" fill="#FFFFFF" transform="matrix(1.00, 0.00, -0.00, -1.00, 550.4, 431.0)">e</text><text xml:space="preserve" font-family="OpenSans" font-size="52.0" fill="#FFFFFF" transform="matrix(1.00, 0.00, -0.00, -1.00, 579.6, 431.0)">l</text><text xml:space="preserve" font-family="OpenSans" font-size="52.0" fill="#FFFFFF" transform="matrix(1.00, 0.00, -0.00, -1.00, 592.7, 431.0)">l</text><text xml:space="preserve" font-family="OpenSans" font-size="52.0" fill="#FFFFFF" transform="matrix(1.00, 0.00, -0.00, -1.00, 605.9, 431.0)">e</text><text xml:space="preserve" font-family="OpenSans" font-size="52.0" fill="#FFFFFF" transform="matrix(1.00, 0.00, -0.00, -1.00, 635.0, 431.0)">s</text><text xml:space="preserve" font-family="OpenSans" font-size="52.0" fill="#FFFFFF" transform="matrix(1.00, 0.00, -0.00, -1.00, 659.9, 431.0)"> </text><text xml:space="preserve" font-family="OpenSans" font-size="52.0" fill="#FFFFFF" transform="matrix(1.00, 0.00, -0.00, -1.00, 673.4, 431.0)">t</text><text xml:space="preserve" font-family="OpenSans" font-size="52.0" fill="#FFFFFF" transform="matrix(1.00, 0.00, -0.00, -1.00, 691.7, 431.0)">r</text><text xml:space="preserve" font-family="OpenSans" font-size="52.0" fill="#FFFFFF" transform="matrix(1.00, 0.00, -0.00, -1.00, 711.9, 431.0)">a</text><text xml:space="preserve" font-family="OpenSans" font-size="52.0" fill="#FFFFFF" transform="matrix(1.00, 0.00, -0.00, -1.00, 740.8, 431.0)">d</text><text xml:space="preserve" font-family="OpenSans" font-size="52.0" fill="#FFFFFF" transform="matrix(1.00, 0.00, -0.00, -1.00, 772.7, 431.0)">u</text><text xml:space="preserve" font-family="OpenSans" font-size="52.0" fill="#FFFFFF" transform="matrix(1.00, 0.00, -0.00, -1.00, 804.6, 431.0)">c</text><text xml:space="preserve" font-family="OpenSans" font-size="52.0" fill="#FFFFFF" transform="matrix(1.00, 0.00, -0.00, -1.00, 829.4, 431.0)">t</text><text xml:space="preserve" font-family="OpenSans" font-size="52.0" fill="#FFFFFF" transform="matrix(1.00, 0.00, -0.00, -1.00, 847.7, 431.0)">i</text><text xml:space="preserve" font-family="OpenSans" font-size="52.0" fill="#FFFFFF" transform="matrix(1.00, 0.00, -0.00, -1.00, 860.9, 431.0)">o</text><text xml:space="preserve" font-family="OpenSans" font-size="52.0" fill="#FFFFFF" transform="matrix(1.00, 0.00, -0.00, -1.00, 892.3, 431.0)">n</text><text xml:space="preserve" font-family="OpenSans" font-size="52.0" fill="#FFFFFF" transform="matrix(1.00, 0.00, -0.00, -1.00, 924.2, 431.0)">s</text><text xml:space="preserve" font-family="OpenSans" font-size="52.0" fill="#FFFFFF" transform="matrix(1.00, 0.00, -0.00, -1.00, 949.0, 431.0)"> </text><text xml:space="preserve" font-family="OpenSans" font-size="52.0" fill="#FFFFFF" transform="matrix(1.00, 0.00, -0.00, -1.00, 962.5, 431.0)">e</text><text xml:space="preserve" font-family="OpenSans" font-size="52.0" fill="#FFFFFF" transform="matrix(1.00, 0.00, -0.00, -1.00, 991.7, 431.0)">n</text><text xml:space="preserve" font-family="OpenSans" font-size="52.0" fill="#FFFFFF" transform="matrix(1.00, 0.00, -0.00, -1.00, 1023.6, 431.0)">v</text><text xml:space="preserve" font-family="OpenSans" font-size="52.0" fill="#FFFFFF" transform="matrix(1.00, 0.00, -0.00, -1.00, 1049.6, 431.0)">o</text><text xml:space="preserve" font-family="OpenSans" font-size="52.0" fill="#FFFFFF" transform="matrix(1.00, 0.00, -0.00, -1.00, 1080.0, 431.0)">y</text><text xml:space="preserve" font-family="OpenSans" font-size="52.0" fill="#FFFFFF" transform="matrix(1.00, 0.00, -0.00, -1.00, 1106.2, 431.0)">é</text><text xml:space="preserve" font-family="OpenSans" font-size="52.0" fill="#FFFFFF" transform="matrix(1.00, 0.00, -0.00, -1.00, 1135.4, 431.0)">e</text><text xml:space="preserve" font-family="OpenSans" font-size="52.0" fill="#FFFFFF" transform="matrix(1.00, 0.00, -0.00, -1.00, 1164.5, 431.0)">s</text><text xml:space="preserve" font-family="OpenSans" font-size="52.0" fill="#FFFFFF" transform="matrix(1.00, 0.00, -0.00, -1.00, 1189.3, 431.0)"> </text><text xml:space="preserve" font-family="OpenSans" font-size="52.0" fill="#FFFFFF" transform="matrix(1.00, 0.00, -0.00, -1.00, 1202.8, 431.0)">s</text><text xml:space="preserve" font-family="OpenSans" font-size="52.0" fill="#FFFFFF" transform="matrix(1.00, 0.00, -0.00, -1.00, 1227.7, 431.0)">u</text><text xml:space="preserve" font-family="OpenSans" font-size="52.0" fill="#FFFFFF" transform="matrix(1.00, 0.00, -0.00, -1.00, 1259.6, 431.0)">r</text><text xml:space="preserve" font-family="OpenSans" font-size="52.0" fill="#FFFFFF" transform="matrix(1.00, 0.00, -0.00, -1.00, 1280.8, 431.0)"> </text><text xml:space="preserve" font-family="OpenSans" font-size="52.0" fill="#FFFFFF" transform="matrix(1.00, 0.00, -0.00, -1.00, 1294.3, 431.0)">l</text><text xml:space="preserve" font-family="OpenSans" font-size="52.0" fill="#FFFFFF" transform="matrix(1.00, 0.00, -0.00, -1.00, 1307.4, 431.0)">e</text><text xml:space="preserve" font-family="OpenSans" font-size="52.0" fill="#FFFFFF" transform="matrix(1.00, 0.00, -0.00, -1.00, 1336.6, 431.0)">s</text><text xml:space="preserve" font-family="OpenSans" font-size="52.0" fill="#FFFFFF" transform="matrix(1.00, 0.00, -0.00, -1.00, 1361.4, 431.0)"> </text><text xml:space="preserve" font-family="OpenSans" font-size="52.0" fill="#FFFFFF" transform="matrix(1.00, 0.00, -0.00, -1.00, 1374.9, 431.0)">d</text><text xml:space="preserve" font-family="OpenSans" font-size="52.0" fill="#FFFFFF" transform="matrix(1.00, 0.00, -0.00, -1.00, 1406.8, 431.0)">é</text><text xml:space="preserve" font-family="OpenSans" font-size="52.0" fill="#FFFFFF" transform="matrix(1.00, 0.00, -0.00, -1.00, 1436.0, 431.0)">p</text><text xml:space="preserve" font-family="OpenSans" font-size="52.0" fill="#FFFFFF" transform="matrix(1.00, 0.00, -0.00, -1.00, 1467.8, 431.0)">ô</text><text xml:space="preserve" font-family="OpenSans" font-size="52.0" fill="#FFFFFF" transform="matrix(1.00, 0.00, -0.00, -1.00, 1499.2, 431.0)">t</text><text xml:space="preserve" font-family="OpenSans" font-size="52.0" fill="#FFFFFF" transform="matrix(1.00, 0.00, -0.00, -1.00, 1517.6, 431.0)">s</text><text xml:space="preserve" font-family="OpenSans" font-size="52.0" fill="#FFFFFF" transform="matrix(1.00, 0.00, -0.00, -1.00, 1542.4, 431.0)"> </text><text xml:space="preserve" font-family="OpenSans" font-size="42.6" fill="#FFFFFF" transform="matrix(1.00, 0.00, -0.00, -1.00, 57.0, 310.0)">•</text><text xml:space="preserve" font-family="OpenSans" font-size="52.0" fill="#FFFFFF" transform="matrix(1.00, 0.00, -0.00, -1.00, 81.0, 306.0)">E</text><text xml:space="preserve" font-family="OpenSans" font-size="52.0" fill="#FFFFFF" transform="matrix(1.00, 0.00, -0.00, -1.00, 109.9, 306.0)">n</text><text xml:space="preserve" font-family="OpenSans" font-size="52.0" fill="#FFFFFF" transform="matrix(1.00, 0.00, -0.00, -1.00, 141.8, 306.0)"> </text><text xml:space="preserve" font-family="OpenSans" font-size="52.0" fill="#FFFFFF" transform="matrix(1.00, 0.00, -0.00, -1.00, 155.3, 306.0)">u</text><text xml:space="preserve" font-family="OpenSans" font-size="52.0" fill="#FFFFFF" transform="matrix(1.00, 0.00, -0.00, -1.00, 187.2, 306.0)">t</text><text xml:space="preserve" font-family="OpenSans" font-size="52.0" fill="#FFFFFF" transform="matrix(1.00, 0.00, -0.00, -1.00, 205.6, 306.0)">i</text><text xml:space="preserve" font-family="OpenSans" font-size="52.0" fill="#FFFFFF" transform="matrix(1.00, 0.00, -0.00, -1.00, 218.7, 306.0)">l</text><text xml:space="preserve" font-family="OpenSans" font-size="52.0" fill="#FFFFFF" transform="matrix(1.00, 0.00, -0.00, -1.00, 231.9, 306.0)">i</text><text xml:space="preserve" font-family="OpenSans" font-size="52.0" fill="#FFFFFF" transform="matrix(1.00, 0.00, -0.00, -1.00, 245.0, 306.0)">s</text><text xml:space="preserve" font-family="OpenSans" font-size="52.0" fill="#FFFFFF" transform="matrix(1.00, 0.00, -0.00, -1.00, 269.8, 306.0)">a</text><text xml:space="preserve" font-family="OpenSans" font-size="52.0" fill="#FFFFFF" transform="matrix(1.00, 0.00, -0.00, -1.00, 298.8, 306.0)">n</text><text xml:space="preserve" font-family="OpenSans" font-size="52.0" fill="#FFFFFF" transform="matrix(1.00, 0.00, -0.00, -1.00, 330.7, 306.0)">t</text><text xml:space="preserve" font-family="OpenSans" font-size="52.0" fill="#FFFFFF" transform="matrix(1.00, 0.00, -0.00, -1.00, 349.0, 306.0)"> </text><text xml:space="preserve" font-family="OpenSans" font-size="52.0" fill="#FFFFFF" transform="matrix(1.00, 0.00, -0.00, -1.00, 362.5, 306.0)">l</text><text xml:space="preserve" font-family="OpenSans" font-size="52.0" fill="#FFFFFF" transform="matrix(1.00, 0.00, -0.00, -1.00, 375.7, 306.0)">e</text><text xml:space="preserve" font-family="OpenSans" font-size="52.0" fill="#FFFFFF" transform="matrix(1.00, 0.00, -0.00, -1.00, 404.9, 306.0)">s</text><text xml:space="preserve" font-family="OpenSans" font-size="52.0" fill="#FFFFFF" transform="matrix(1.00, 0.00, -0.00, -1.00, 429.7, 306.0)"> </text><text xml:space="preserve" font-family="OpenSans" font-size="52.0" fill="#FFFFFF" transform="matrix(1.00, 0.00, -0.00, -1.00, 443.2, 306.0)">l</text><text xml:space="preserve" font-family="OpenSans" font-size="52.0" fill="#FFFFFF" transform="matrix(1.00, 0.00, -0.00, -1.00, 456.3, 306.0)">o</text><text xml:space="preserve" font-family="OpenSans" font-size="52.0" fill="#FFFFFF" transform="matrix(1.00, 0.00, -0.00, -1.00, 487.7, 306.0)">g</text><text xml:space="preserve" font-family="OpenSans" font-size="52.0" fill="#FFFFFF" transform="matrix(1.00, 0.00, -0.00, -1.00, 516.2, 306.0)">i</text><text xml:space="preserve" font-family="OpenSans" font-size="52.0" fill="#FFFFFF" transform="matrix(1.00, 0.00, -0.00, -1.00, 529.4, 306.0)">c</text><text xml:space="preserve" font-family="OpenSans" font-size="52.0" fill="#FFFFFF" transform="matrix(1.00, 0.00, -0.00, -1.00, 554.1, 306.0)">i</text><text xml:space="preserve" font-family="OpenSans" font-size="52.0" fill="#FFFFFF" transform="matrix(1.00, 0.00, -0.00, -1.00, 567.3, 306.0)">e</text><text xml:space="preserve" font-family="OpenSans" font-size="52.0" fill="#FFFFFF" transform="matrix(1.00, 0.00, -0.00, -1.00, 596.4, 306.0)">l</text><text xml:space="preserve" font-family="OpenSans" font-size="52.0" fill="#FFFFFF" transform="matrix(1.00, 0.00, -0.00, -1.00, 609.6, 306.0)">s</text><text xml:space="preserve" font-family="OpenSans" font-size="52.0" fill="#FFFFFF" transform="matrix(1.00, 0.00, -0.00, -1.00, 634.4, 306.0)"> </text><text xml:space="preserve" font-family="OpenSans" font-size="52.0" fill="#FFFFFF" transform="matrix(1.00, 0.00, -0.00, -1.00, 647.9, 306.0)">e</text><text xml:space="preserve" font-family="OpenSans" font-size="52.0" fill="#FFFFFF" transform="matrix(1.00, 0.00, -0.00, -1.00, 677.1, 306.0)">t</text><text xml:space="preserve" font-family="OpenSans" font-size="52.0" fill="#FFFFFF" transform="matrix(1.00, 0.00, -0.00, -1.00, 695.4, 306.0)"> </text><text xml:space="preserve" font-family="OpenSans" font-size="52.0" fill="#FFFFFF" transform="matrix(1.00, 0.00, -0.00, -1.00, 708.9, 306.0)">s</text><text xml:space="preserve" font-family="OpenSans" font-size="52.0" fill="#FFFFFF" transform="matrix(1.00, 0.00, -0.00, -1.00, 733.7, 306.0)">i</text><text xml:space="preserve" font-family="OpenSans" font-size="52.0" fill="#FFFFFF" transform="matrix(1.00, 0.00, -0.00, -1.00, 746.9, 306.0)">t</text><text xml:space="preserve" font-family="OpenSans" font-size="52.0" fill="#FFFFFF" transform="matrix(1.00, 0.00, -0.00, -1.00, 765.2, 306.0)">e</text><text xml:space="preserve" font-family="OpenSans" font-size="52.0" fill="#FFFFFF" transform="matrix(1.00, 0.00, -0.00, -1.00, 794.4, 306.0)">s</text><text xml:space="preserve" font-family="OpenSans" font-size="52.0" fill="#FFFFFF" transform="matrix(1.00, 0.00, -0.00, -1.00, 819.2, 306.0)"> </text><text xml:space="preserve" font-family="OpenSans" font-size="52.0" fill="#FFFFFF" transform="matrix(1.00, 0.00, -0.00, -1.00, 832.7, 306.0)">w</text><text xml:space="preserve" font-family="OpenSans" font-size="52.0" fill="#FFFFFF" transform="matrix(1.00, 0.00, -0.00, -1.00, 873.2, 306.0)">e</text><text xml:space="preserve" font-family="OpenSans" font-size="52.0" fill="#FFFFFF" transform="matrix(1.00, 0.00, -0.00, -1.00, 902.3, 306.0)">b</text><text xml:space="preserve" font-family="OpenSans" font-size="52.0" fill="#FFFFFF" transform="matrix(1.00, 0.00, -0.00, -1.00, 934.2, 306.0)">,</text><text xml:space="preserve" font-family="OpenSans" font-size="52.0" fill="#FFFFFF" transform="matrix(1.00, 0.00, -0.00, -1.00, 946.9, 306.0)"> </text><text xml:space="preserve" font-family="OpenSans" font-size="52.0" fill="#FFFFFF" transform="matrix(1.00, 0.00, -0.00, -1.00, 960.4, 306.0)">t</text><text xml:space="preserve" font-family="OpenSans" font-size="52.0" fill="#FFFFFF" transform="matrix(1.00, 0.00, -0.00, -1.00, 978.8, 306.0)">o</text><text xml:space="preserve" font-family="OpenSans" font-size="52.0" fill="#FFFFFF" transform="matrix(1.00, 0.00, -0.00, -1.00, 1010.2, 306.0)">u</text><text xml:space="preserve" font-family="OpenSans" font-size="52.0" fill="#FFFFFF" transform="matrix(1.00, 0.00, -0.00, -1.00, 1042.1, 306.0)">t</text><text xml:space="preserve" font-family="OpenSans" font-size="52.0" fill="#FFFFFF" transform="matrix(1.00, 0.00, -0.00, -1.00, 1060.5, 306.0)"> </text><text xml:space="preserve" font-family="OpenSans" font-size="52.0" fill="#FFFFFF" transform="matrix(1.00, 0.00, -0.00, -1.00, 1074.0, 306.0)">s</text><text xml:space="preserve" font-family="OpenSans" font-size="52.0" fill="#FFFFFF" transform="matrix(1.00, 0.00, -0.00, -1.00, 1098.8, 306.0)">i</text><text xml:space="preserve" font-family="OpenSans" font-size="52.0" fill="#FFFFFF" transform="matrix(1.00, 0.00, -0.00, -1.00, 1111.9, 306.0)">m</text><text xml:space="preserve" font-family="OpenSans" font-size="52.0" fill="#FFFFFF" transform="matrix(1.00, 0.00, -0.00, -1.00, 1160.3, 306.0)">p</text><text xml:space="preserve" font-family="OpenSans" font-size="52.0" fill="#FFFFFF" transform="matrix(1.00, 0.00, -0.00, -1.00, 1192.2, 306.0)">l</text><text xml:space="preserve" font-family="OpenSans" font-size="52.0" fill="#FFFFFF" transform="matrix(1.00, 0.00, -0.00, -1.00, 1205.3, 306.0)">e</text><text xml:space="preserve" font-family="OpenSans" font-size="52.0" fill="#FFFFFF" transform="matrix(1.00, 0.00, -0.00, -1.00, 1234.5, 306.0)">m</text><text xml:space="preserve" font-family="OpenSans" font-size="52.0" fill="#FFFFFF" transform="matrix(1.00, 0.00, -0.00, -1.00, 1282.9, 306.0)">e</text><text xml:space="preserve" font-family="OpenSans" font-size="52.0" fill="#FFFFFF" transform="matrix(1.00, 0.00, -0.00, -1.00, 1312.0, 306.0)">n</text><text xml:space="preserve" font-family="OpenSans" font-size="52.0" fill="#FFFFFF" transform="matrix(1.00, 0.00, -0.00, -1.00, 1343.9, 306.0)">t</text></g></svg>