<?xml version="1.0" encoding="UTF-8" standalone="no"?><svg xmlns="http://www.w3.org/2000/svg" xmlns:xlink="http://www.w3.org/1999/xlink" clip-rule="evenodd" stroke-miterlimit="4.00" viewBox="0 0 1920 1080"><desc>SVG generated by Keynote</desc><defs></defs><g transform="matrix(1.00, 0.00, -0.00, -1.00, 0.0, 1080.0)"><g><clipPath id="clip-108"><path d="M 0.0 1080.0 L 1920.0 1080.0 L 1920.0 0.0 L 0.0 0.0 Z M 0.0 1080.0 "></path></clipPath><g clip-path="url(#clip-108)"><image xlink:href="../../2677DC75-44AA-4362-8194-690EDA55041B/assets/8CB06E0CD672379C9A3B0841311F1144.png" width="961.00" height="541.00" transform="matrix(2.00, 0.00, -0.00, -2.00, 0.0, 1080.0)"></image></g></g><image xlink:href="../../5DDE46E5-DB9F-4075-BD33-5328BEB277AD/assets/FFB0A1D70778ABBA732A48CD20F69EE9.png" width="146.00" height="39.00" transform="matrix(0.99, 0.00, -0.00, -1.00, 1725.0, 1080.0)"></image><text xml:space="preserve" font-family="OpenSans-Light" font-size="88.0" fill="#FFFFFF" transform="matrix(1.00, 0.00, -0.00, -1.00, 57.0, 950.0)">P</text><text xml:space="preserve" font-family="OpenSans-Light" font-size="88.0" fill="#FFFFFF" transform="matrix(1.00, 0.00, -0.00, -1.00, 108.5, 950.0)">R</text><text xml:space="preserve" font-family="OpenSans-Light" font-size="88.0" fill="#FFFFFF" transform="matrix(1.00, 0.00, -0.00, -1.00, 160.8, 950.0)">O</text><text xml:space="preserve" font-family="OpenSans-Light" font-size="88.0" fill="#FFFFFF" transform="matrix(1.00, 0.00, -0.00, -1.00, 228.1, 950.0)">B</text><text xml:space="preserve" font-family="OpenSans-Light" font-size="88.0" fill="#FFFFFF" transform="matrix(1.00, 0.00, -0.00, -1.00, 283.2, 950.0)">L</text><text xml:space="preserve" font-family="OpenSans-Light" font-size="88.0" fill="#FFFFFF" transform="matrix(1.00, 0.00, -0.00, -1.00, 328.4, 950.0)">È</text><text xml:space="preserve" font-family="OpenSans-Light" font-size="88.0" fill="#FFFFFF" transform="matrix(1.00, 0.00, -0.00, -1.00, 376.9, 950.0)">M</text><text xml:space="preserve" font-family="OpenSans-Light" font-size="88.0" fill="#FFFFFF" transform="matrix(1.00, 0.00, -0.00, -1.00, 452.8, 950.0)">E</text><text xml:space="preserve" font-family="OpenSans-Light" font-size="88.0" fill="#FFFFFF" transform="matrix(1.00, 0.00, -0.00, -1.00, 501.4, 950.0)">S</text><text xml:space="preserve" font-family="OpenSans-Light" font-size="88.0" fill="#FFFFFF" transform="matrix(1.00, 0.00, -0.00, -1.00, 549.3, 950.0)"> </text><text xml:space="preserve" font-family="OpenSans-Light" font-size="88.0" fill="#FFFFFF" transform="matrix(1.00, 0.00, -0.00, -1.00, 572.2, 950.0)">À</text><text xml:space="preserve" font-family="OpenSans-Light" font-size="88.0" fill="#FFFFFF" transform="matrix(1.00, 0.00, -0.00, -1.00, 625.0, 950.0)"> </text><text xml:space="preserve" font-family="OpenSans-Light" font-size="88.0" fill="#FFFFFF" transform="matrix(1.00, 0.00, -0.00, -1.00, 647.8, 950.0)">S</text><text xml:space="preserve" font-family="OpenSans-Light" font-size="88.0" fill="#FFFFFF" transform="matrix(1.00, 0.00, -0.00, -1.00, 695.8, 950.0)">I</text><text xml:space="preserve" font-family="OpenSans-Light" font-size="88.0" fill="#FFFFFF" transform="matrix(1.00, 0.00, -0.00, -1.00, 717.9, 950.0)">G</text><text xml:space="preserve" font-family="OpenSans-Light" font-size="88.0" fill="#FFFFFF" transform="matrix(1.00, 0.00, -0.00, -1.00, 781.6, 950.0)">N</text><text xml:space="preserve" font-family="OpenSans-Light" font-size="88.0" fill="#FFFFFF" transform="matrix(1.00, 0.00, -0.00, -1.00, 845.1, 950.0)">A</text><text xml:space="preserve" font-family="OpenSans-Light" font-size="88.0" fill="#FFFFFF" transform="matrix(1.00, 0.00, -0.00, -1.00, 897.9, 950.0)">L</text><text xml:space="preserve" font-family="OpenSans-Light" font-size="88.0" fill="#FFFFFF" transform="matrix(1.00, 0.00, -0.00, -1.00, 943.1, 950.0)">E</text><text xml:space="preserve" font-family="OpenSans-Light" font-size="88.0" fill="#FFFFFF" transform="matrix(1.00, 0.00, -0.00, -1.00, 991.6, 950.0)">R</text><text xml:space="preserve" font-family="OpenSans" font-size="42.6" fill="#FFFFFF" transform="matrix(1.00, 0.00, -0.00, -1.00, 57.0, 685.0)">•</text><text xml:space="preserve" font-family="OpenSans" font-size="52.0" fill="#FFFFFF" transform="matrix(1.00, 0.00, -0.00, -1.00, 81.0, 681.0)">F</text><text xml:space="preserve" font-family="OpenSans" font-size="52.0" fill="#FFFFFF" transform="matrix(1.00, 0.00, -0.00, -1.00, 107.8, 681.0)">a</text><text xml:space="preserve" font-family="OpenSans" font-size="52.0" fill="#FFFFFF" transform="matrix(1.00, 0.00, -0.00, -1.00, 136.8, 681.0)">u</text><text xml:space="preserve" font-family="OpenSans" font-size="52.0" fill="#FFFFFF" transform="matrix(1.00, 0.00, -0.00, -1.00, 168.7, 681.0)">t</text><text xml:space="preserve" font-family="OpenSans" font-size="52.0" fill="#FFFFFF" transform="matrix(1.00, 0.00, -0.00, -1.00, 187.0, 681.0)">e</text><text xml:space="preserve" font-family="OpenSans" font-size="52.0" fill="#FFFFFF" transform="matrix(1.00, 0.00, -0.00, -1.00, 216.2, 681.0)">s</text><text xml:space="preserve" font-family="OpenSans" font-size="52.0" fill="#FFFFFF" transform="matrix(1.00, 0.00, -0.00, -1.00, 241.0, 681.0)"> </text><text xml:space="preserve" font-family="OpenSans" font-size="52.0" fill="#FFFFFF" transform="matrix(1.00, 0.00, -0.00, -1.00, 254.5, 681.0)">d</text><text xml:space="preserve" font-family="OpenSans" font-size="52.0" fill="#FFFFFF" transform="matrix(1.00, 0.00, -0.00, -1.00, 286.4, 681.0)">’</text><text xml:space="preserve" font-family="OpenSans" font-size="52.0" fill="#FFFFFF" transform="matrix(1.00, 0.00, -0.00, -1.00, 292.1, 681.0)">o</text><text xml:space="preserve" font-family="OpenSans" font-size="52.0" fill="#FFFFFF" transform="matrix(1.00, 0.00, -0.00, -1.00, 323.5, 681.0)">r</text><text xml:space="preserve" font-family="OpenSans" font-size="52.0" fill="#FFFFFF" transform="matrix(1.00, 0.00, -0.00, -1.00, 344.7, 681.0)">t</text><text xml:space="preserve" font-family="OpenSans" font-size="52.0" fill="#FFFFFF" transform="matrix(1.00, 0.00, -0.00, -1.00, 363.1, 681.0)">h</text><text xml:space="preserve" font-family="OpenSans" font-size="52.0" fill="#FFFFFF" transform="matrix(1.00, 0.00, -0.00, -1.00, 395.0, 681.0)">o</text><text xml:space="preserve" font-family="OpenSans" font-size="52.0" fill="#FFFFFF" transform="matrix(1.00, 0.00, -0.00, -1.00, 426.4, 681.0)">g</text><text xml:space="preserve" font-family="OpenSans" font-size="52.0" fill="#FFFFFF" transform="matrix(1.00, 0.00, -0.00, -1.00, 454.9, 681.0)">r</text><text xml:space="preserve" font-family="OpenSans" font-size="52.0" fill="#FFFFFF" transform="matrix(1.00, 0.00, -0.00, -1.00, 475.1, 681.0)">a</text><text xml:space="preserve" font-family="OpenSans" font-size="52.0" fill="#FFFFFF" transform="matrix(1.00, 0.00, -0.00, -1.00, 504.0, 681.0)">p</text><text xml:space="preserve" font-family="OpenSans" font-size="52.0" fill="#FFFFFF" transform="matrix(1.00, 0.00, -0.00, -1.00, 535.9, 681.0)">h</text><text xml:space="preserve" font-family="OpenSans" font-size="52.0" fill="#FFFFFF" transform="matrix(1.00, 0.00, -0.00, -1.00, 567.8, 681.0)">e</text><text xml:space="preserve" font-family="OpenSans" font-size="52.0" fill="#FFFFFF" transform="matrix(1.00, 0.00, -0.00, -1.00, 596.9, 681.0)"> </text><text xml:space="preserve" font-family="OpenSans" font-size="52.0" fill="#FFFFFF" transform="matrix(1.00, 0.00, -0.00, -1.00, 610.4, 681.0)">e</text><text xml:space="preserve" font-family="OpenSans" font-size="52.0" fill="#FFFFFF" transform="matrix(1.00, 0.00, -0.00, -1.00, 639.6, 681.0)">t</text><text xml:space="preserve" font-family="OpenSans" font-size="52.0" fill="#FFFFFF" transform="matrix(1.00, 0.00, -0.00, -1.00, 658.0, 681.0)"> </text><text xml:space="preserve" font-family="OpenSans" font-size="52.0" fill="#FFFFFF" transform="matrix(1.00, 0.00, -0.00, -1.00, 671.5, 681.0)">d</text><text xml:space="preserve" font-family="OpenSans" font-size="52.0" fill="#FFFFFF" transform="matrix(1.00, 0.00, -0.00, -1.00, 703.3, 681.0)">e</text><text xml:space="preserve" font-family="OpenSans" font-size="52.0" fill="#FFFFFF" transform="matrix(1.00, 0.00, -0.00, -1.00, 732.5, 681.0)"> </text><text xml:space="preserve" font-family="OpenSans" font-size="52.0" fill="#FFFFFF" transform="matrix(1.00, 0.00, -0.00, -1.00, 746.0, 681.0)">g</text><text xml:space="preserve" font-family="OpenSans" font-size="52.0" fill="#FFFFFF" transform="matrix(1.00, 0.00, -0.00, -1.00, 774.5, 681.0)">r</text><text xml:space="preserve" font-family="OpenSans" font-size="52.0" fill="#FFFFFF" transform="matrix(1.00, 0.00, -0.00, -1.00, 794.7, 681.0)">a</text><text xml:space="preserve" font-family="OpenSans" font-size="52.0" fill="#FFFFFF" transform="matrix(1.00, 0.00, -0.00, -1.00, 823.6, 681.0)">m</text><text xml:space="preserve" font-family="OpenSans" font-size="52.0" fill="#FFFFFF" transform="matrix(1.00, 0.00, -0.00, -1.00, 872.0, 681.0)">m</text><text xml:space="preserve" font-family="OpenSans" font-size="52.0" fill="#FFFFFF" transform="matrix(1.00, 0.00, -0.00, -1.00, 920.4, 681.0)">a</text><text xml:space="preserve" font-family="OpenSans" font-size="52.0" fill="#FFFFFF" transform="matrix(1.00, 0.00, -0.00, -1.00, 949.3, 681.0)">i</text><text xml:space="preserve" font-family="OpenSans" font-size="52.0" fill="#FFFFFF" transform="matrix(1.00, 0.00, -0.00, -1.00, 962.4, 681.0)">r</text><text xml:space="preserve" font-family="OpenSans" font-size="52.0" fill="#FFFFFF" transform="matrix(1.00, 0.00, -0.00, -1.00, 982.6, 681.0)">e</text><text xml:space="preserve" font-family="OpenSans" font-size="52.0" fill="#FFFFFF" transform="matrix(1.00, 0.00, -0.00, -1.00, 1011.8, 681.0)"> </text><text xml:space="preserve" font-family="OpenSans" font-size="42.6" fill="#FFFFFF" transform="matrix(1.00, 0.00, -0.00, -1.00, 57.0, 560.0)">•</text><text xml:space="preserve" font-family="OpenSans" font-size="52.0" fill="#FFFFFF" transform="matrix(1.00, 0.00, -0.00, -1.00, 81.0, 556.0)">A</text><text xml:space="preserve" font-family="OpenSans" font-size="52.0" fill="#FFFFFF" transform="matrix(1.00, 0.00, -0.00, -1.00, 113.9, 556.0)">n</text><text xml:space="preserve" font-family="OpenSans" font-size="52.0" fill="#FFFFFF" transform="matrix(1.00, 0.00, -0.00, -1.00, 145.8, 556.0)">g</text><text xml:space="preserve" font-family="OpenSans" font-size="52.0" fill="#FFFFFF" transform="matrix(1.00, 0.00, -0.00, -1.00, 174.3, 556.0)">l</text><text xml:space="preserve" font-family="OpenSans" font-size="52.0" fill="#FFFFFF" transform="matrix(1.00, 0.00, -0.00, -1.00, 187.4, 556.0)">i</text><text xml:space="preserve" font-family="OpenSans" font-size="52.0" fill="#FFFFFF" transform="matrix(1.00, 0.00, -0.00, -1.00, 200.6, 556.0)">c</text><text xml:space="preserve" font-family="OpenSans" font-size="52.0" fill="#FFFFFF" transform="matrix(1.00, 0.00, -0.00, -1.00, 225.3, 556.0)">i</text><text xml:space="preserve" font-family="OpenSans" font-size="52.0" fill="#FFFFFF" transform="matrix(1.00, 0.00, -0.00, -1.00, 238.5, 556.0)">s</text><text xml:space="preserve" font-family="OpenSans" font-size="52.0" fill="#FFFFFF" transform="matrix(1.00, 0.00, -0.00, -1.00, 263.3, 556.0)">m</text><text xml:space="preserve" font-family="OpenSans" font-size="52.0" fill="#FFFFFF" transform="matrix(1.00, 0.00, -0.00, -1.00, 311.7, 556.0)">e</text><text xml:space="preserve" font-family="OpenSans" font-size="52.0" fill="#FFFFFF" transform="matrix(1.00, 0.00, -0.00, -1.00, 340.9, 556.0)">s</text><text xml:space="preserve" font-family="OpenSans" font-size="52.0" fill="#FFFFFF" transform="matrix(1.00, 0.00, -0.00, -1.00, 365.7, 556.0)"> </text><text xml:space="preserve" font-family="OpenSans-Italic" font-style="italic" font-size="52.0" fill="#FFFFFF" transform="matrix(1.00, 0.00, -0.00, -1.00, 379.2, 556.0)">(</text><text xml:space="preserve" font-family="OpenSans-Italic" font-style="italic" font-size="52.0" fill="#FFFFFF" transform="matrix(1.00, 0.00, -0.00, -1.00, 394.0, 556.0)">s</text><text xml:space="preserve" font-family="OpenSans-Italic" font-style="italic" font-size="52.0" fill="#FFFFFF" transform="matrix(1.00, 0.00, -0.00, -1.00, 416.3, 556.0)">u</text><text xml:space="preserve" font-family="OpenSans-Italic" font-style="italic" font-size="52.0" fill="#FFFFFF" transform="matrix(1.00, 0.00, -0.00, -1.00, 446.3, 556.0)">p</text><text xml:space="preserve" font-family="OpenSans-Italic" font-style="italic" font-size="52.0" fill="#FFFFFF" transform="matrix(1.00, 0.00, -0.00, -1.00, 476.3, 556.0)">p</text><text xml:space="preserve" font-family="OpenSans-Italic" font-style="italic" font-size="52.0" fill="#FFFFFF" transform="matrix(1.00, 0.00, -0.00, -1.00, 506.4, 556.0)">o</text><text xml:space="preserve" font-family="OpenSans-Italic" font-style="italic" font-size="52.0" fill="#FFFFFF" transform="matrix(1.00, 0.00, -0.00, -1.00, 535.5, 556.0)">r</text><text xml:space="preserve" font-family="OpenSans-Italic" font-style="italic" font-size="52.0" fill="#FFFFFF" transform="matrix(1.00, 0.00, -0.00, -1.00, 556.1, 556.0)">t</text><text xml:space="preserve" font-family="OpenSans-Italic" font-style="italic" font-size="52.0" fill="#FFFFFF" transform="matrix(1.00, 0.00, -0.00, -1.00, 573.0, 556.0)">e</text><text xml:space="preserve" font-family="OpenSans-Italic" font-style="italic" font-size="52.0" fill="#FFFFFF" transform="matrix(1.00, 0.00, -0.00, -1.00, 598.6, 556.0)">r</text><text xml:space="preserve" font-family="OpenSans-Italic" font-style="italic" font-size="52.0" fill="#FFFFFF" transform="matrix(1.00, 0.00, -0.00, -1.00, 619.2, 556.0)">,</text><text xml:space="preserve" font-family="OpenSans-Italic" font-style="italic" font-size="52.0" fill="#FFFFFF" transform="matrix(1.00, 0.00, -0.00, -1.00, 631.7, 556.0)"> </text><text xml:space="preserve" font-family="OpenSans-Italic" font-style="italic" font-size="52.0" fill="#FFFFFF" transform="matrix(1.00, 0.00, -0.00, -1.00, 645.2, 556.0)"> </text><text xml:space="preserve" font-family="OpenSans-Italic" font-style="italic" font-size="52.0" fill="#FFFFFF" transform="matrix(1.00, 0.00, -0.00, -1.00, 658.7, 556.0)">l</text><text xml:space="preserve" font-family="OpenSans-Italic" font-style="italic" font-size="52.0" fill="#FFFFFF" transform="matrix(1.00, 0.00, -0.00, -1.00, 671.9, 556.0)">i</text><text xml:space="preserve" font-family="OpenSans-Italic" font-style="italic" font-size="52.0" fill="#FFFFFF" transform="matrix(1.00, 0.00, -0.00, -1.00, 685.1, 556.0)">b</text><text xml:space="preserve" font-family="OpenSans-Italic" font-style="italic" font-size="52.0" fill="#FFFFFF" transform="matrix(1.00, 0.00, -0.00, -1.00, 715.1, 556.0)">r</text><text xml:space="preserve" font-family="OpenSans-Italic" font-style="italic" font-size="52.0" fill="#FFFFFF" transform="matrix(1.00, 0.00, -0.00, -1.00, 734.7, 556.0)">a</text><text xml:space="preserve" font-family="OpenSans-Italic" font-style="italic" font-size="52.0" fill="#FFFFFF" transform="matrix(1.00, 0.00, -0.00, -1.00, 764.1, 556.0)">i</text><text xml:space="preserve" font-family="OpenSans-Italic" font-style="italic" font-size="52.0" fill="#FFFFFF" transform="matrix(1.00, 0.00, -0.00, -1.00, 777.3, 556.0)">r</text><text xml:space="preserve" font-family="OpenSans-Italic" font-style="italic" font-size="52.0" fill="#FFFFFF" transform="matrix(1.00, 0.00, -0.00, -1.00, 797.9, 556.0)">i</text><text xml:space="preserve" font-family="OpenSans-Italic" font-style="italic" font-size="52.0" fill="#FFFFFF" transform="matrix(1.00, 0.00, -0.00, -1.00, 811.1, 556.0)">e</text><text xml:space="preserve" font-family="OpenSans-Italic" font-style="italic" font-size="52.0" fill="#FFFFFF" transform="matrix(1.00, 0.00, -0.00, -1.00, 836.7, 556.0)">,</text><text xml:space="preserve" font-family="OpenSans-Italic" font-style="italic" font-size="52.0" fill="#FFFFFF" transform="matrix(1.00, 0.00, -0.00, -1.00, 849.2, 556.0)"> </text><text xml:space="preserve" font-family="OpenSans-Italic" font-style="italic" font-size="52.0" fill="#FFFFFF" transform="matrix(1.00, 0.00, -0.00, -1.00, 862.7, 556.0)">o</text><text xml:space="preserve" font-family="OpenSans-Italic" font-style="italic" font-size="52.0" fill="#FFFFFF" transform="matrix(1.00, 0.00, -0.00, -1.00, 891.9, 556.0)">p</text><text xml:space="preserve" font-family="OpenSans-Italic" font-style="italic" font-size="52.0" fill="#FFFFFF" transform="matrix(1.00, 0.00, -0.00, -1.00, 921.9, 556.0)">p</text><text xml:space="preserve" font-family="OpenSans-Italic" font-style="italic" font-size="52.0" fill="#FFFFFF" transform="matrix(1.00, 0.00, -0.00, -1.00, 951.9, 556.0)">o</text><text xml:space="preserve" font-family="OpenSans-Italic" font-style="italic" font-size="52.0" fill="#FFFFFF" transform="matrix(1.00, 0.00, -0.00, -1.00, 981.1, 556.0)">r</text><text xml:space="preserve" font-family="OpenSans-Italic" font-style="italic" font-size="52.0" fill="#FFFFFF" transform="matrix(1.00, 0.00, -0.00, -1.00, 1001.7, 556.0)">t</text><text xml:space="preserve" font-family="OpenSans-Italic" font-style="italic" font-size="52.0" fill="#FFFFFF" transform="matrix(1.00, 0.00, -0.00, -1.00, 1018.6, 556.0)">u</text><text xml:space="preserve" font-family="OpenSans-Italic" font-style="italic" font-size="52.0" fill="#FFFFFF" transform="matrix(1.00, 0.00, -0.00, -1.00, 1048.6, 556.0)">n</text><text xml:space="preserve" font-family="OpenSans-Italic" font-style="italic" font-size="52.0" fill="#FFFFFF" transform="matrix(1.00, 0.00, -0.00, -1.00, 1078.6, 556.0)">i</text><text xml:space="preserve" font-family="OpenSans-Italic" font-style="italic" font-size="52.0" fill="#FFFFFF" transform="matrix(1.00, 0.00, -0.00, -1.00, 1091.8, 556.0)">t</text><text xml:space="preserve" font-family="OpenSans-Italic" font-style="italic" font-size="52.0" fill="#FFFFFF" transform="matrix(1.00, 0.00, -0.00, -1.00, 1108.7, 556.0)">é</text><text xml:space="preserve" font-family="OpenSans-Italic" font-style="italic" font-size="52.0" fill="#FFFFFF" transform="matrix(1.00, 0.00, -0.00, -1.00, 1134.3, 556.0)">,</text><text xml:space="preserve" font-family="OpenSans-Italic" font-style="italic" font-size="52.0" fill="#FFFFFF" transform="matrix(1.00, 0.00, -0.00, -1.00, 1146.8, 556.0)"> </text><text xml:space="preserve" font-family="OpenSans-Italic" font-style="italic" font-size="52.0" fill="#FFFFFF" transform="matrix(1.00, 0.00, -0.00, -1.00, 1160.3, 556.0)">d</text><text xml:space="preserve" font-family="OpenSans-Italic" font-style="italic" font-size="52.0" fill="#FFFFFF" transform="matrix(1.00, 0.00, -0.00, -1.00, 1190.3, 556.0)">i</text><text xml:space="preserve" font-family="OpenSans-Italic" font-style="italic" font-size="52.0" fill="#FFFFFF" transform="matrix(1.00, 0.00, -0.00, -1.00, 1203.5, 556.0)">g</text><text xml:space="preserve" font-family="OpenSans-Italic" font-style="italic" font-size="52.0" fill="#FFFFFF" transform="matrix(1.00, 0.00, -0.00, -1.00, 1229.6, 556.0)">i</text><text xml:space="preserve" font-family="OpenSans-Italic" font-style="italic" font-size="52.0" fill="#FFFFFF" transform="matrix(1.00, 0.00, -0.00, -1.00, 1242.8, 556.0)">t</text><text xml:space="preserve" font-family="OpenSans-Italic" font-style="italic" font-size="52.0" fill="#FFFFFF" transform="matrix(1.00, 0.00, -0.00, -1.00, 1259.6, 556.0)">a</text><text xml:space="preserve" font-family="OpenSans-Italic" font-style="italic" font-size="52.0" fill="#FFFFFF" transform="matrix(1.00, 0.00, -0.00, -1.00, 1289.0, 556.0)">l</text><text xml:space="preserve" font-family="OpenSans-Italic" font-style="italic" font-size="52.0" fill="#FFFFFF" transform="matrix(1.00, 0.00, -0.00, -1.00, 1302.2, 556.0)">…</text><text xml:space="preserve" font-family="OpenSans-Italic" font-style="italic" font-size="52.0" fill="#FFFFFF" transform="matrix(1.00, 0.00, -0.00, -1.00, 1341.9, 556.0)">)</text><text xml:space="preserve" font-family="OpenSans" font-size="52.0" fill="#FFFFFF" transform="matrix(1.00, 0.00, -0.00, -1.00, 1356.7, 556.0)"> </text><text xml:space="preserve" font-family="OpenSans" font-size="42.6" fill="#FFFFFF" transform="matrix(1.00, 0.00, -0.00, -1.00, 57.0, 435.0)">•</text><text xml:space="preserve" font-family="OpenSans" font-size="52.0" fill="#FFFFFF" transform="matrix(1.00, 0.00, -0.00, -1.00, 81.0, 431.0)">T</text><text xml:space="preserve" font-family="OpenSans" font-size="52.0" fill="#FFFFFF" transform="matrix(1.00, 0.00, -0.00, -1.00, 106.1, 431.0)">e</text><text xml:space="preserve" font-family="OpenSans" font-size="52.0" fill="#FFFFFF" transform="matrix(1.00, 0.00, -0.00, -1.00, 134.3, 431.0)">x</text><text xml:space="preserve" font-family="OpenSans" font-size="52.0" fill="#FFFFFF" transform="matrix(1.00, 0.00, -0.00, -1.00, 161.5, 431.0)">t</text><text xml:space="preserve" font-family="OpenSans" font-size="52.0" fill="#FFFFFF" transform="matrix(1.00, 0.00, -0.00, -1.00, 179.9, 431.0)">e</text><text xml:space="preserve" font-family="OpenSans" font-size="52.0" fill="#FFFFFF" transform="matrix(1.00, 0.00, -0.00, -1.00, 209.1, 431.0)"> </text><text xml:space="preserve" font-family="OpenSans" font-size="52.0" fill="#FFFFFF" transform="matrix(1.00, 0.00, -0.00, -1.00, 222.5, 431.0)">t</text><text xml:space="preserve" font-family="OpenSans" font-size="52.0" fill="#FFFFFF" transform="matrix(1.00, 0.00, -0.00, -1.00, 240.9, 431.0)">r</text><text xml:space="preserve" font-family="OpenSans" font-size="52.0" fill="#FFFFFF" transform="matrix(1.00, 0.00, -0.00, -1.00, 261.1, 431.0)">o</text><text xml:space="preserve" font-family="OpenSans" font-size="52.0" fill="#FFFFFF" transform="matrix(1.00, 0.00, -0.00, -1.00, 292.5, 431.0)">n</text><text xml:space="preserve" font-family="OpenSans" font-size="52.0" fill="#FFFFFF" transform="matrix(1.00, 0.00, -0.00, -1.00, 324.4, 431.0)">q</text><text xml:space="preserve" font-family="OpenSans" font-size="52.0" fill="#FFFFFF" transform="matrix(1.00, 0.00, -0.00, -1.00, 356.3, 431.0)">u</text><text xml:space="preserve" font-family="OpenSans" font-size="52.0" fill="#FFFFFF" transform="matrix(1.00, 0.00, -0.00, -1.00, 388.2, 431.0)">é</text><text xml:space="preserve" font-family="OpenSans" font-size="52.0" fill="#FFFFFF" transform="matrix(1.00, 0.00, -0.00, -1.00, 417.4, 431.0)"> </text><text xml:space="preserve" font-family="OpenSans" font-size="42.6" fill="#FFFFFF" transform="matrix(1.00, 0.00, -0.00, -1.00, 57.0, 310.0)">•</text><text xml:space="preserve" font-family="OpenSans" font-size="52.0" fill="#FFFFFF" transform="matrix(1.00, 0.00, -0.00, -1.00, 81.0, 306.0)">M</text><text xml:space="preserve" font-family="OpenSans" font-size="52.0" fill="#FFFFFF" transform="matrix(1.00, 0.00, -0.00, -1.00, 127.9, 306.0)">a</text><text xml:space="preserve" font-family="OpenSans" font-size="52.0" fill="#FFFFFF" transform="matrix(1.00, 0.00, -0.00, -1.00, 156.9, 306.0)">l</text><text xml:space="preserve" font-family="OpenSans" font-size="52.0" fill="#FFFFFF" transform="matrix(1.00, 0.00, -0.00, -1.00, 170.0, 306.0)">a</text><text xml:space="preserve" font-family="OpenSans" font-size="52.0" fill="#FFFFFF" transform="matrix(1.00, 0.00, -0.00, -1.00, 198.9, 306.0)">d</text><text xml:space="preserve" font-family="OpenSans" font-size="52.0" fill="#FFFFFF" transform="matrix(1.00, 0.00, -0.00, -1.00, 230.8, 306.0)">r</text><text xml:space="preserve" font-family="OpenSans" font-size="52.0" fill="#FFFFFF" transform="matrix(1.00, 0.00, -0.00, -1.00, 251.0, 306.0)">e</text><text xml:space="preserve" font-family="OpenSans" font-size="52.0" fill="#FFFFFF" transform="matrix(1.00, 0.00, -0.00, -1.00, 280.2, 306.0)">s</text><text xml:space="preserve" font-family="OpenSans" font-size="52.0" fill="#FFFFFF" transform="matrix(1.00, 0.00, -0.00, -1.00, 305.0, 306.0)">s</text><text xml:space="preserve" font-family="OpenSans" font-size="52.0" fill="#FFFFFF" transform="matrix(1.00, 0.00, -0.00, -1.00, 329.8, 306.0)">e</text><text xml:space="preserve" font-family="OpenSans" font-size="52.0" fill="#FFFFFF" transform="matrix(1.00, 0.00, -0.00, -1.00, 359.0, 306.0)">s</text><text xml:space="preserve" font-family="OpenSans" font-size="52.0" fill="#FFFFFF" transform="matrix(1.00, 0.00, -0.00, -1.00, 383.8, 306.0)"> </text><text xml:space="preserve" font-family="OpenSans" font-size="52.0" fill="#FFFFFF" transform="matrix(1.00, 0.00, -0.00, -1.00, 397.3, 306.0)">/</text><text xml:space="preserve" font-family="OpenSans" font-size="52.0" fill="#FFFFFF" transform="matrix(1.00, 0.00, -0.00, -1.00, 416.4, 306.0)"> </text><text xml:space="preserve" font-family="OpenSans" font-size="52.0" fill="#FFFFFF" transform="matrix(1.00, 0.00, -0.00, -1.00, 429.9, 306.0)">t</text><text xml:space="preserve" font-family="OpenSans" font-size="52.0" fill="#FFFFFF" transform="matrix(1.00, 0.00, -0.00, -1.00, 448.2, 306.0)">o</text><text xml:space="preserve" font-family="OpenSans" font-size="52.0" fill="#FFFFFF" transform="matrix(1.00, 0.00, -0.00, -1.00, 479.6, 306.0)">u</text><text xml:space="preserve" font-family="OpenSans" font-size="52.0" fill="#FFFFFF" transform="matrix(1.00, 0.00, -0.00, -1.00, 511.5, 306.0)">r</text><text xml:space="preserve" font-family="OpenSans" font-size="52.0" fill="#FFFFFF" transform="matrix(1.00, 0.00, -0.00, -1.00, 532.8, 306.0)">n</text><text xml:space="preserve" font-family="OpenSans" font-size="52.0" fill="#FFFFFF" transform="matrix(1.00, 0.00, -0.00, -1.00, 564.7, 306.0)">u</text><text xml:space="preserve" font-family="OpenSans" font-size="52.0" fill="#FFFFFF" transform="matrix(1.00, 0.00, -0.00, -1.00, 596.6, 306.0)">r</text><text xml:space="preserve" font-family="OpenSans" font-size="52.0" fill="#FFFFFF" transform="matrix(1.00, 0.00, -0.00, -1.00, 616.8, 306.0)">e</text><text xml:space="preserve" font-family="OpenSans" font-size="52.0" fill="#FFFFFF" transform="matrix(1.00, 0.00, -0.00, -1.00, 646.0, 306.0)">s</text><text xml:space="preserve" font-family="OpenSans" font-size="52.0" fill="#FFFFFF" transform="matrix(1.00, 0.00, -0.00, -1.00, 670.8, 306.0)"> </text><text xml:space="preserve" font-family="OpenSans" font-size="52.0" fill="#FFFFFF" transform="matrix(1.00, 0.00, -0.00, -1.00, 684.3, 306.0)">l</text><text xml:space="preserve" font-family="OpenSans" font-size="52.0" fill="#FFFFFF" transform="matrix(1.00, 0.00, -0.00, -1.00, 697.4, 306.0)">o</text><text xml:space="preserve" font-family="OpenSans" font-size="52.0" fill="#FFFFFF" transform="matrix(1.00, 0.00, -0.00, -1.00, 728.8, 306.0)">u</text><text xml:space="preserve" font-family="OpenSans" font-size="52.0" fill="#FFFFFF" transform="matrix(1.00, 0.00, -0.00, -1.00, 760.7, 306.0)">r</text><text xml:space="preserve" font-family="OpenSans" font-size="52.0" fill="#FFFFFF" transform="matrix(1.00, 0.00, -0.00, -1.00, 780.9, 306.0)">d</text><text xml:space="preserve" font-family="OpenSans" font-size="52.0" fill="#FFFFFF" transform="matrix(1.00, 0.00, -0.00, -1.00, 812.8, 306.0)">e</text><text xml:space="preserve" font-family="OpenSans" font-size="52.0" fill="#FFFFFF" transform="matrix(1.00, 0.00, -0.00, -1.00, 842.0, 306.0)">s</text><text xml:space="preserve" font-family="OpenSans" font-size="52.0" fill="#FFFFFF" transform="matrix(1.00, 0.00, -0.00, -1.00, 866.8, 306.0)"> </text><text xml:space="preserve" font-family="OpenSans" font-size="52.0" fill="#FFFFFF" transform="matrix(1.00, 0.00, -0.00, -1.00, 880.3, 306.0)">o</text><text xml:space="preserve" font-family="OpenSans" font-size="52.0" fill="#FFFFFF" transform="matrix(1.00, 0.00, -0.00, -1.00, 911.7, 306.0)">u</text><text xml:space="preserve" font-family="OpenSans" font-size="52.0" fill="#FFFFFF" transform="matrix(1.00, 0.00, -0.00, -1.00, 943.6, 306.0)"> </text><text xml:space="preserve" font-family="OpenSans" font-size="52.0" fill="#FFFFFF" transform="matrix(1.00, 0.00, -0.00, -1.00, 957.1, 306.0)">p</text><text xml:space="preserve" font-family="OpenSans" font-size="52.0" fill="#FFFFFF" transform="matrix(1.00, 0.00, -0.00, -1.00, 988.9, 306.0)">a</text><text xml:space="preserve" font-family="OpenSans" font-size="52.0" fill="#FFFFFF" transform="matrix(1.00, 0.00, -0.00, -1.00, 1017.9, 306.0)">s</text><text xml:space="preserve" font-family="OpenSans" font-size="52.0" fill="#FFFFFF" transform="matrix(1.00, 0.00, -0.00, -1.00, 1042.7, 306.0)"> </text><text xml:space="preserve" font-family="OpenSans" font-size="52.0" fill="#FFFFFF" transform="matrix(1.00, 0.00, -0.00, -1.00, 1056.2, 306.0)">«</text><text xml:space="preserve" font-family="OpenSans" font-size="52.0" fill="#FFFFFF" transform="matrix(1.00, 0.00, -0.00, -1.00, 1082.0, 306.0)"> </text><text xml:space="preserve" font-family="OpenSans" font-size="52.0" fill="#FFFFFF" transform="matrix(1.00, 0.00, -0.00, -1.00, 1095.5, 306.0)">n</text><text xml:space="preserve" font-family="OpenSans" font-size="52.0" fill="#FFFFFF" transform="matrix(1.00, 0.00, -0.00, -1.00, 1127.4, 306.0)">a</text><text xml:space="preserve" font-family="OpenSans" font-size="52.0" fill="#FFFFFF" transform="matrix(1.00, 0.00, -0.00, -1.00, 1156.4, 306.0)">t</text><text xml:space="preserve" font-family="OpenSans" font-size="52.0" fill="#FFFFFF" transform="matrix(1.00, 0.00, -0.00, -1.00, 1174.7, 306.0)">u</text><text xml:space="preserve" font-family="OpenSans" font-size="52.0" fill="#FFFFFF" transform="matrix(1.00, 0.00, -0.00, -1.00, 1206.6, 306.0)">r</text><text xml:space="preserve" font-family="OpenSans" font-size="52.0" fill="#FFFFFF" transform="matrix(1.00, 0.00, -0.00, -1.00, 1226.8, 306.0)">e</text><text xml:space="preserve" font-family="OpenSans" font-size="52.0" fill="#FFFFFF" transform="matrix(1.00, 0.00, -0.00, -1.00, 1256.0, 306.0)">l</text><text xml:space="preserve" font-family="OpenSans" font-size="52.0" fill="#FFFFFF" transform="matrix(1.00, 0.00, -0.00, -1.00, 1269.1, 306.0)">l</text><text xml:space="preserve" font-family="OpenSans" font-size="52.0" fill="#FFFFFF" transform="matrix(1.00, 0.00, -0.00, -1.00, 1282.3, 306.0)">e</text><text xml:space="preserve" font-family="OpenSans" font-size="52.0" fill="#FFFFFF" transform="matrix(1.00, 0.00, -0.00, -1.00, 1311.5, 306.0)">s</text><text xml:space="preserve" font-family="OpenSans" font-size="52.0" fill="#FFFFFF" transform="matrix(1.00, 0.00, -0.00, -1.00, 1336.3, 306.0)"> </text><text xml:space="preserve" font-family="OpenSans" font-size="52.0" fill="#FFFFFF" transform="matrix(1.00, 0.00, -0.00, -1.00, 1349.8, 306.0)">»</text><text xml:space="preserve" font-family="OpenSans" font-size="52.0" fill="#FFFFFF" transform="matrix(1.00, 0.00, -0.00, -1.00, 1375.6, 306.0)"> </text><text xml:space="preserve" font-family="OpenSans" font-size="42.6" fill="#FFFFFF" transform="matrix(1.00, 0.00, -0.00, -1.00, 57.0, 185.0)">•</text><text xml:space="preserve" font-family="OpenSans" font-size="52.0" fill="#FFFFFF" transform="matrix(1.00, 0.00, -0.00, -1.00, 81.0, 181.0)">R</text><text xml:space="preserve" font-family="OpenSans" font-size="52.0" fill="#FFFFFF" transform="matrix(1.00, 0.00, -0.00, -1.00, 113.2, 181.0)">è</text><text xml:space="preserve" font-family="OpenSans" font-size="52.0" fill="#FFFFFF" transform="matrix(1.00, 0.00, -0.00, -1.00, 142.3, 181.0)">g</text><text xml:space="preserve" font-family="OpenSans" font-size="52.0" fill="#FFFFFF" transform="matrix(1.00, 0.00, -0.00, -1.00, 170.8, 181.0)">l</text><text xml:space="preserve" font-family="OpenSans" font-size="52.0" fill="#FFFFFF" transform="matrix(1.00, 0.00, -0.00, -1.00, 184.0, 181.0)">e</text><text xml:space="preserve" font-family="OpenSans" font-size="52.0" fill="#FFFFFF" transform="matrix(1.00, 0.00, -0.00, -1.00, 213.1, 181.0)">s</text><text xml:space="preserve" font-family="OpenSans" font-size="52.0" fill="#FFFFFF" transform="matrix(1.00, 0.00, -0.00, -1.00, 237.9, 181.0)"> </text><text xml:space="preserve" font-family="OpenSans" font-size="52.0" fill="#FFFFFF" transform="matrix(1.00, 0.00, -0.00, -1.00, 251.4, 181.0)">t</text><text xml:space="preserve" font-family="OpenSans" font-size="52.0" fill="#FFFFFF" transform="matrix(1.00, 0.00, -0.00, -1.00, 269.8, 181.0)">y</text><text xml:space="preserve" font-family="OpenSans" font-size="52.0" fill="#FFFFFF" transform="matrix(1.00, 0.00, -0.00, -1.00, 296.0, 181.0)">p</text><text xml:space="preserve" font-family="OpenSans" font-size="52.0" fill="#FFFFFF" transform="matrix(1.00, 0.00, -0.00, -1.00, 327.9, 181.0)">o</text><text xml:space="preserve" font-family="OpenSans" font-size="52.0" fill="#FFFFFF" transform="matrix(1.00, 0.00, -0.00, -1.00, 359.3, 181.0)">g</text><text xml:space="preserve" font-family="OpenSans" font-size="52.0" fill="#FFFFFF" transform="matrix(1.00, 0.00, -0.00, -1.00, 387.7, 181.0)">r</text><text xml:space="preserve" font-family="OpenSans" font-size="52.0" fill="#FFFFFF" transform="matrix(1.00, 0.00, -0.00, -1.00, 407.9, 181.0)">a</text><text xml:space="preserve" font-family="OpenSans" font-size="52.0" fill="#FFFFFF" transform="matrix(1.00, 0.00, -0.00, -1.00, 436.9, 181.0)">p</text><text xml:space="preserve" font-family="OpenSans" font-size="52.0" fill="#FFFFFF" transform="matrix(1.00, 0.00, -0.00, -1.00, 468.7, 181.0)">h</text><text xml:space="preserve" font-family="OpenSans" font-size="52.0" fill="#FFFFFF" transform="matrix(1.00, 0.00, -0.00, -1.00, 500.6, 181.0)">i</text><text xml:space="preserve" font-family="OpenSans" font-size="52.0" fill="#FFFFFF" transform="matrix(1.00, 0.00, -0.00, -1.00, 513.8, 181.0)">q</text><text xml:space="preserve" font-family="OpenSans" font-size="52.0" fill="#FFFFFF" transform="matrix(1.00, 0.00, -0.00, -1.00, 545.6, 181.0)">u</text><text xml:space="preserve" font-family="OpenSans" font-size="52.0" fill="#FFFFFF" transform="matrix(1.00, 0.00, -0.00, -1.00, 577.5, 181.0)">e</text><text xml:space="preserve" font-family="OpenSans" font-size="52.0" fill="#FFFFFF" transform="matrix(1.00, 0.00, -0.00, -1.00, 606.7, 181.0)">s</text></g></svg>